<svg xmlns="http://www.w3.org/2000/svg" xmlns:xlink="http://www.w3.org/1999/xlink"><defs><symbol viewBox="0 0 16 16" id="16-chevron-down"><defs><path d="M5.293 4.707a1 1 0 0 1 1.414-1.414l4 4a1 1 0 0 1 0 1.414l-4 4a1 1 0 1 1-1.414-1.414L8.586 8 5.293 4.707z" id="16-chevron-down_a" /></defs><use fill="currentColor" fill-rule="nonzero" transform="rotate(90 8 8)" xlink:href="#16-chevron-down_a" /></symbol><symbol viewBox="0 0 16 16" id="16-chevron-left"><defs><path d="M5.293 4.707a1 1 0 0 1 1.414-1.414l4 4a1 1 0 0 1 0 1.414l-4 4a1 1 0 1 1-1.414-1.414L8.586 8 5.293 4.707z" id="16-chevron-left_a" /></defs><use fill="currentColor" fill-rule="nonzero" transform="matrix(-1 0 0 1 16 0)" xlink:href="#16-chevron-left_a" /></symbol><symbol viewBox="0 0 16 16" id="16-chevron-right"><defs><path d="M5.293 4.707a1 1 0 0 1 1.414-1.414l4 4a1 1 0 0 1 0 1.414l-4 4a1 1 0 1 1-1.414-1.414L8.586 8 5.293 4.707z" id="16-chevron-right_a" /></defs><use fill="currentColor" fill-rule="nonzero" xlink:href="#16-chevron-right_a" /></symbol><symbol viewBox="0 0 16 16" id="16-chevron-up"><defs><path d="M5.293 4.707a1 1 0 0 1 1.414-1.414l4 4a1 1 0 0 1 0 1.414l-4 4a1 1 0 1 1-1.414-1.414L8.586 8 5.293 4.707z" id="16-chevron-up_a" /></defs><use fill="currentColor" fill-rule="nonzero" transform="rotate(-90 8 8)" xlink:href="#16-chevron-up_a" /></symbol><symbol viewBox="0 0 16 16" id="16-close"><defs><path d="M9.414 8l3.293 3.293a1 1 0 0 1-1.414 1.414L8 9.414l-3.293 3.293a1 1 0 1 1-1.414-1.414L6.586 8 3.293 4.707a1 1 0 0 1 1.414-1.414L8 6.586l3.293-3.293a1 1 0 0 1 1.414 1.414L9.414 8z" id="16-close_a" /></defs><use fill="currentColor" fill-rule="nonzero" xlink:href="#16-close_a" /></symbol><symbol viewBox="0 0 16 16" id="16-info"><defs><path d="M8 16A8 8 0 1 1 8 0a8 8 0 0 1 0 16zm0-2A6 6 0 1 0 8 2a6 6 0 0 0 0 12zm0-8a1 1 0 1 1 0-2 1 1 0 0 1 0 2zm0 1a1 1 0 0 1 1 1v3a1 1 0 0 1-2 0V8a1 1 0 0 1 1-1z" id="16-info_a" /></defs><use fill="currentColor" fill-rule="nonzero" xlink:href="#16-info_a" /></symbol><symbol viewBox="0 0 16 16" id="16-open"><defs><path d="M11.92 3H10a1 1 0 1 1 0-2h4a1 1 0 0 1 1 1v4a1 1 0 0 1-2 0V4.748L8.365 9.383A1 1 0 0 1 6.95 7.969L11.92 3zM11 10.667a1 1 0 1 1 2 0v2A2.333 2.333 0 0 1 10.667 15H3.333A2.333 2.333 0 0 1 1 12.667V5.333A2.333 2.333 0 0 1 3.333 3h2a1 1 0 1 1 0 2h-2A.333.333 0 0 0 3 5.333v7.334c0 .184.15.333.333.333h7.334c.184 0 .333-.15.333-.333v-2z" id="16-open_a" /></defs><use fill="currentColor" fill-rule="nonzero" xlink:href="#16-open_a" /></symbol><symbol viewBox="0 0 32 32" id="32-award"><path d="M15.684 30.03l-2.658.885a3 3 0 0 1-3.387-1.1l-1.63-2.278a1 1 0 0 0-.511-.371l-2.671-.848a3 3 0 0 1-2.093-2.88l.02-2.802a1 1 0 0 0-.196-.6L.896 17.78a3 3 0 0 1 0-3.56l1.662-2.256a1 1 0 0 0 .195-.6l-.02-2.802a3 3 0 0 1 2.094-2.88l2.67-.848a1 1 0 0 0 .511-.37l1.631-2.28a3 3 0 0 1 3.387-1.1l2.658.885a1 1 0 0 0 .632 0l2.658-.884a3 3 0 0 1 3.387 1.1l1.63 2.278a1 1 0 0 0 .511.371l2.671.848a3 3 0 0 1 2.093 2.88l-.02 2.802a1 1 0 0 0 .196.6l1.662 2.256a3 3 0 0 1 0 3.56l-1.662 2.256a1 1 0 0 0-.195.6l.02 2.802a3 3 0 0 1-2.094 2.88l-2.67.848a1 1 0 0 0-.511.37l-1.631 2.28a3 3 0 0 1-3.387 1.1l-2.658-.885a1 1 0 0 0-.632 0zm-.63-1.897a3 3 0 0 1 1.893 0l2.659.885a1 1 0 0 0 1.128-.367l1.632-2.279a3 3 0 0 1 1.532-1.113l2.67-.847a1 1 0 0 0 .698-.96l-.02-2.802a3 3 0 0 1 .586-1.801l1.663-2.256a1 1 0 0 0 0-1.186l-1.663-2.256a3 3 0 0 1-.585-1.8l.02-2.803a1 1 0 0 0-.698-.96l-2.671-.847a3 3 0 0 1-1.532-1.113l-1.632-2.279a1 1 0 0 0-1.128-.367l-2.66.885a3 3 0 0 1-1.893 0l-2.659-.885a1 1 0 0 0-1.128.367L9.634 5.628A3 3 0 0 1 8.102 6.74l-2.67.847a1 1 0 0 0-.698.96l.02 2.802a3 3 0 0 1-.586 1.801l-1.663 2.256a1 1 0 0 0 0 1.186l1.663 2.256a3 3 0 0 1 .585 1.8l-.02 2.803a1 1 0 0 0 .698.96l2.671.847a3 3 0 0 1 1.532 1.113l1.632 2.279a1 1 0 0 0 1.128.367l2.66-.885zm6.25-16.85a1 1 0 1 1 1.392 1.435l-8.25 8a1 1 0 0 1-1.392 0l-3.75-3.636a1 1 0 0 1 1.392-1.436l3.054 2.961 7.554-7.325z" fill="currentColor" fill-rule="nonzero" /></symbol><symbol viewBox="0 0 32 32" id="32-doctor"><path d="M21.5 17.942A8.501 8.501 0 0 1 14 9.5V2h4.216v2H16v5.5a6.5 6.5 0 1 0 13 0V4h-2.25V2H31v7.5a8.501 8.501 0 0 1-7.5 8.442v3.683a8.5 8.5 0 0 1-8.5 8.5v-2l.002 2-.002-2a6.5 6.5 0 0 0 6.5-6.5v-3.683zm-6.498 12.183H14.5c-2.788 0-5.248-1.896-6.426-4.776a1 1 0 0 1 1.852-.757c.887 2.17 2.655 3.533 4.574 3.533h.502v2zM7 23a5 5 0 1 1 0-10 5 5 0 0 1 0 10zm0-2a3 3 0 1 0 0-6 3 3 0 0 0 0 6zm0-2a1 1 0 1 1 0-2 1 1 0 0 1 0 2z" fill="currentColor" fill-rule="nonzero" /></symbol><symbol viewBox="0 0 32 32" id="32-platitel"><path d="M28 17h-9v-2h9v-4a1 1 0 0 0-1-1H5a1 1 0 0 0-1 1v4h9v2H4v9a1 1 0 0 0 1 1h22a1 1 0 0 0 1-1v-9zM10 8V6a3 3 0 0 1 3-3h6a3 3 0 0 1 3 3v2h5a3 3 0 0 1 3 3v15a3 3 0 0 1-3 3H5a3 3 0 0 1-3-3V11a3 3 0 0 1 3-3h5zm2 0h8V6a1 1 0 0 0-1-1h-6a1 1 0 0 0-1 1v2zm-1 9h2a3 3 0 0 0 6 0h2a5 5 0 0 1-10 0zm5 1a1 1 0 1 1 0-2 1 1 0 0 1 0 2z" fill="currentColor" fill-rule="nonzero" /></symbol><symbol viewBox="0 0 32 32" id="32-poistenec"><path d="M5 27v3H3v-3c0-4.016 3.238-8 7-8a1 1 0 0 1 .553.167c1.478.981 3.286 1.476 5.447 1.476 2.058 0 3.874-.497 5.471-1.492A1 1 0 0 1 22 19c3.762 0 7 3.984 7 8v3h-2v-3c0-2.89-2.28-5.795-4.739-5.99-1.855 1.09-3.949 1.633-6.261 1.633-2.41 0-4.509-.541-6.275-1.632C7.272 21.216 5 24.115 5 27zm11-9a8 8 0 1 1 0-16 8 8 0 0 1 0 16zm0-2a6 6 0 1 0 0-12 6 6 0 0 0 0 12zm6.232 9.354a1.207 1.207 0 0 1 0 1.707l-.232.232L20.293 29l-1.707-1.707-.232-.232a1.207 1.207 0 1 1 1.706-1.707l.233.232.233-.232a1.207 1.207 0 0 1 1.706 0z" fill="currentColor" fill-rule="nonzero" /></symbol><symbol fill="none" viewBox="0 0 24 24" id="add-user"><path fill-rule="evenodd" clip-rule="evenodd" d="M5.5 7a3 3 0 1 1 6 0 3 3 0 0 1-6 0zm3-5a5 5 0 1 0 0 10 5 5 0 0 0 0-10zM5 14a5 5 0 0 0-5 5v2a1 1 0 1 0 2 0v-2a3 3 0 0 1 3-3h7a3 3 0 0 1 3 3v2a1 1 0 1 0 2 0v-2a5 5 0 0 0-5-5H5zm15-7a1 1 0 0 1 1 1v2h2a1 1 0 1 1 0 2h-2v2a1 1 0 1 1-2 0v-2h-2a1 1 0 1 1 0-2h2V8a1 1 0 0 1 1-1z" fill="currentColor" /></symbol><symbol viewBox="0 0 24 24" id="arrow-left"><defs><path d="M17.586 11l-4.293-4.293a1 1 0 1 1 1.414-1.414l6 6a1 1 0 0 1 0 1.414l-6 6a1 1 0 0 1-1.414-1.414L17.586 13H4a1 1 0 0 1 0-2h13.586z" id="arrow-left_a" /></defs><use fill="currentColor" fill-rule="nonzero" transform="matrix(-1 0 0 1 24 0)" xlink:href="#arrow-left_a" /></symbol><symbol viewBox="0 0 24 24" id="arrow-right"><defs><path d="M17.586 11l-4.293-4.293a1 1 0 1 1 1.414-1.414l6 6a1 1 0 0 1 0 1.414l-6 6a1 1 0 0 1-1.414-1.414L17.586 13H4a1 1 0 0 1 0-2h13.586z" id="arrow-right_a" /></defs><use fill="currentColor" fill-rule="nonzero" xlink:href="#arrow-right_a" /></symbol><symbol viewBox="0 0 24 24" id="check"><defs><path d="M19.293 5.293a1 1 0 0 1 1.414 1.414l-11 11a1 1 0 0 1-1.414 0l-5-5a1 1 0 0 1 1.414-1.414L9 15.586 19.293 5.293z" id="check_a" /></defs><use fill="currentColor" fill-rule="nonzero" xlink:href="#check_a" /></symbol><symbol viewBox="0 0 24 24" id="check-box"><defs><path d="M11 12.586L21.293 2.293a1 1 0 0 1 1.414 1.414l-11 11a1 1 0 0 1-1.414 0l-3-3a1 1 0 0 1 1.414-1.414L11 12.586zM19 12a1 1 0 0 1 2 0v7a3 3 0 0 1-3 3H4a3 3 0 0 1-3-3V5a3 3 0 0 1 3-3h11a1 1 0 0 1 0 2H4a1 1 0 0 0-1 1v14a1 1 0 0 0 1 1h14a1 1 0 0 0 1-1v-7z" id="check-box_a" /></defs><use fill="currentColor" fill-rule="nonzero" xlink:href="#check-box_a" /></symbol><symbol viewBox="0 0 24 24" id="chevron-down"><defs><path d="M8.293 6.707a1 1 0 0 1 1.414-1.414l6 6a1 1 0 0 1 0 1.414l-6 6a1 1 0 1 1-1.414-1.414L13.586 12 8.293 6.707z" id="chevron-down_a" /></defs><use fill="currentColor" fill-rule="nonzero" transform="rotate(90 12 12)" xlink:href="#chevron-down_a" /></symbol><symbol viewBox="0 0 24 24" id="chevron-left"><defs><path d="M8.293 6.707a1 1 0 0 1 1.414-1.414l6 6a1 1 0 0 1 0 1.414l-6 6a1 1 0 1 1-1.414-1.414L13.586 12 8.293 6.707z" id="chevron-left_a" /></defs><use fill="currentColor" fill-rule="nonzero" transform="matrix(-1 0 0 1 24 0)" xlink:href="#chevron-left_a" /></symbol><symbol viewBox="0 0 24 24" id="chevron-right"><defs><path d="M8.293 6.707a1 1 0 0 1 1.414-1.414l6 6a1 1 0 0 1 0 1.414l-6 6a1 1 0 1 1-1.414-1.414L13.586 12 8.293 6.707z" id="chevron-right_a" /></defs><use fill="currentColor" fill-rule="nonzero" xlink:href="#chevron-right_a" /></symbol><symbol viewBox="0 0 24 24" id="chevron-up"><defs><path d="M8.293 6.707a1 1 0 0 1 1.414-1.414l6 6a1 1 0 0 1 0 1.414l-6 6a1 1 0 1 1-1.414-1.414L13.586 12 8.293 6.707z" id="chevron-up_a" /></defs><use fill="currentColor" fill-rule="nonzero" transform="rotate(-90 12 12)" xlink:href="#chevron-up_a" /></symbol><symbol viewBox="0 0 24 24" id="close"><defs><path d="M13.414 12l5.293 5.293a1 1 0 0 1-1.414 1.414L12 13.414l-5.293 5.293a1 1 0 1 1-1.414-1.414L10.586 12 5.293 6.707a1 1 0 0 1 1.414-1.414L12 10.586l5.293-5.293a1 1 0 0 1 1.414 1.414L13.414 12z" id="close_a" /></defs><use fill="currentColor" fill-rule="nonzero" xlink:href="#close_a" /></symbol><symbol viewBox="0 0 32 32" id="color-baby"><g fill="none" fill-rule="evenodd"><path d="M3.815 16.837c2.203 5.646 3.37 7.433 8.72 10.695 8.523 5.196 12.46.447 8.498-8.75-1.09-2.533-2.835-5.036-4.598-7.125-2.021-2.397-5.25-6.977-8.628-7.596-.74-.136-3.254 1.815-3.755 2.293-3.47 3.31-.237 10.483-.237 10.483z" fill="#003579" /><path fill="#003579" d="M4.971 15.51l.058.005.057.01.057.014.055.018.054.021.052.026.05.029.049.033.045.036.043.039.04.042.037.045.034.047.03.05.026.051.023.054.02.055.014.056.011.057.007.057.002.058-.001.058-.006.058-.01.058-.013.056-.018.055-.021.054-.026.052-.029.05-.033.049-.036.045-.039.043-.042.04-.045.037-.047.034-.05.03-.051.026-.054.023-.028.011-.028.011-.027.01-.027.011-.027.01-.027.012-.026.01-.027.011-.026.011-.027.011-.025.01-.027.012-.026.011-.025.011-.026.011-.026.011-.025.012-.025.01-.025.012-.025.011-.025.012-.025.011-.024.012-.025.01-.024.012-.025.012-.024.012-.024.011-.024.012-.023.011-.024.012-.024.012-.023.012-.023.012-.024.011-.023.012-.023.012-.022.012-.023.012-.023.012-.022.012-.022.012-.023.012-.022.013-.022.012-.022.012-.021.012-.022.012-.022.013-.021.012-.021.012-.021.013-.022.012-.02.013-.021.012-.021.013-.02.012-.02.013-.021.012-.02.013-.02.013-.02.013-.02.012-.02.013-.02.013-.02.013-.02.012-.018.013-.02.013-.019.013-.019.013-.019.013-.018.013-.019.013-.018.013-.019.013-.018.013-.018.013-.018.013-.018.013-.018.014-.018.013-.018.013-.017.013-.018.014-.017.013-.017.013-.017.013-.017.014-.017.013-.017.014-.017.013-.017.014-.016.013-.016.013-.016.014-.017.014-.016.013-.016.014-.016.013-.015.014-.016.013-.015.014-.016.014-.015.014-.015.013-.015.014-.016.014-.014.014-.015.013-.015.014-.015.014-.014.013-.014.014-.015.015-.014.014-.014.013-.014.014-.014.014-.014.014-.014.014-.013.014-.014.014-.013.014-.014.014-.013.014-.013.014-.013.014-.013.014-.013.015-.012.014-.013.014-.013.014-.012.014-.013.014-.012.014-.012.014-.012.015-.012.014-.012.014-.012.015-.011.014-.012.014-.012.015-.011.014-.012.014-.01.014-.012.015-.011.015-.011.014-.011.014-.01.015-.012.014-.01.014-.01.015-.011.014-.01.015-.011.014-.01.015-.01.014-.01.015-.01.014-.01.015-.01.015-.01.014-.01.015-.009.014-.01.015-.009.014-.009.015-.01.015-.008.015-.01.014-.008.015-.01.015-.008.014-.009.015-.008.015-.009.014-.008.015-.009.015-.008.015-.008.014-.008.015-.008.015-.008.015-.008.015-.008.014-.008.016-.008.014-.007.015-.008.015-.007.015-.007.015-.008.015-.007.015-.007.015-.007.014-.007.016-.007.015-.007.014-.006.015-.007.015-.007.016-.006.014-.007.015-.006.015-.006.016-.007.015-.006.015-.006.015-.006.015-.006.015-.006.015-.005.015-.006.015-.006.015-.005.016-.006.015-.005.015-.005.015-.006.015-.005.016-.005.015-.005.015-.005.015-.005.016-.005.015-.004.015-.005.015-.005.016-.004.015-.005.015-.004.015-.005.016-.004.015-.004.015-.004.016-.004.015-.004.016-.004.015-.004.015-.004.016-.004.015-.003.015-.004.016-.003.015-.004.016-.003.015-.004.016-.003.015-.003.016-.003.015-.003.015-.003.016-.003.016-.003.015-.003.016-.002.015-.003.016-.003.015-.002.016-.003.015-.002.016-.002.016-.003.015-.002.016-.002.015-.002.016-.002.016-.002.015-.002.016-.002.016-.001.015-.002.016-.002.016-.001.015-.002.016-.001.016-.001.015-.002.016v.016l-.002.016-.001.015-.001.016-.001.016-.001.015v.016l-.002.016v.032l-.002.015v.048l-.001.016V21.415l.001.015v.016l.001.016.001.016v.016l.002.016v.016l.001.016.001.016.001.016.001.015.002.016v.016l.002.016.002.016v.016l.002.016.002.016.001.016.002.016.002.016.002.015.001.016.002.016.002.016.002.016.002.016.002.016.003.016.002.016.002.016.003.016.002.016.002.016.003.015.003.016.002.016.003.016.003.016.003.016.002.016.003.016.003.016.003.016.004.016.003.015.006.032.007.032.007.032.007.032.008.031.008.032.007.032.009.031.008.032.009.032.008.031.01.032.009.031.01.032.009.031.01.032.01.031.01.031.01.032.012.03.01.032.012.031.011.031.012.032.012.03.012.032.012.03.013.031.012.031.013.031.013.03.014.031.013.031.014.03.014.03.014.031.014.03.015.03.015.031.014.03.016.03.015.03.015.03.016.03.016.03.016.03.016.029.017.03.016.029.017.029.017.03.017.028.018.029.017.029.018.029.018.029.018.028.018.029.018.028.019.028.019.028.019.028.019.028.019.028.02.028.019.028.02.027.02.027.02.028.02.027.02.027.02.027.022.026.02.027.022.027.02.026.022.026.021.026.022.026.022.026.022.025.022.026.022.025.022.026.023.025.022.025.023.024.023.025.023.024.023.025.023.024.023.024.024.024.024.024.023.023.024.023.024.024.024.023.024.022.025.023.024.023.025.022.024.022.025.022.025.022.025.022.025.021.026.022.025.02.025.022.026.02.025.02.026.021.026.02.026.02.026.02.026.02.026.02.026.019.026.018.027.02.026.018.027.018.027.019.026.018.027.017.027.018.027.018.027.017.027.017.027.016.027.017.028.016.027.017.027.015.028.016.028.016.027.015.027.015.028.015.028.015.028.014.028.014.027.014.028.014.028.013.029.014.027.013.029.013.028.012.028.013.028.012.03.012.012.005.014.006.015.006.014.006.014.005.014.006.015.006.014.005.014.005.014.006.014.005.014.005.015.006.014.005.014.005.014.005.015.004.014.005.013.005.015.005.015.005.014.004.014.005.014.004.015.005.013.004.015.005.015.004.014.004.014.004.014.004.014.004.015.004.014.004.014.004.015.004.014.003.015.004.014.004.014.003.014.004.014.003.015.004.014.003.014.003.015.003.015.003.014.003.013.003.015.003.015.003.014.003.014.003.014.002.015.003.015.003.014.002.014.002.014.003.014.002.015.002.014.003.014.002.015.002.015.002.014.002.014.001.014.002.014.002.014.002.015.001.014.002.014.001.015.002.014.001.014.001.015.002h.014l.014.002h.015l.014.002h.015l.014.002h.014l.014.001h.014l.014.001h.014l.015.001h.015l.014.001H6.225l.014-.001h.014l.015-.001h.013l.014-.002h.015l.015-.001.013-.001.014-.001.015-.001.014-.001.014-.002h.015l.014-.002.014-.002.014-.001.014-.002.015-.001.014-.002.014-.002.014-.001.015-.002.014-.002.013-.002.015-.002.014-.002.014-.003.015-.002.013-.002.015-.003.014-.002.014-.003.014-.002.014-.003.015-.003.014-.003.014-.003.014-.003.014-.003.014-.003.015-.003.014-.003.014-.004.014-.003.014-.004.015-.003.014-.004.013-.003.015-.004.014-.004.014-.004.015-.004.014-.004.013-.004.015-.005.014-.004.014-.004.014-.005.014-.004.014-.005.015-.005.014-.004.014-.005.014-.005.014-.005.015-.005.014-.005.014-.005.014-.006.014-.005.014-.006.014-.005.014-.006.014-.005.015-.006.014-.006.014-.006.015-.006.014-.006.013-.006.015-.007.014-.006.014-.006.014-.007.014-.006.015-.007.013-.007.014-.007.015-.007.014-.007.014-.007.014-.007.014-.007.015-.008.014-.007.014-.008.014-.007.014-.008.015-.008.014-.008.014-.007.014-.008.015-.009.013-.008.014-.008.015-.009.013-.008.015-.009.014-.009.014-.008.014-.01.015-.008.014-.01.014-.008.014-.01.014-.009.015-.01.014-.009.014-.01.014-.01.014-.009.015-.01.014-.01.013-.01.015-.01.014-.01.014-.01.014-.011.015-.01.014-.012.014-.01.014-.011.014-.01.014-.012.015-.011.014-.012.014-.011.014-.011.014-.012.015-.012.013-.011.015-.012.014-.012.014-.012.014-.013.014-.012.014-.012.015-.013.013-.012.015-.013.014-.013.014-.013.014-.013.014-.013.014-.013.015-.014.014-.013.013-.013.015-.014.014-.014.014-.014.014-.014.014-.014.014-.014.014-.015.014-.014.014-.015.014-.014.014-.015.014-.015.014-.015.014-.015.014-.015.014-.016.014-.015.014-.016.014-.016.014-.015.014-.016.014-.017.014-.015.014-.017.014-.016.014-.017.014-.017.014-.016.013-.017.014-.017.014-.017.014-.017.014-.017.014-.018.013-.017.014-.018.014-.018.014-.018.013-.018.014-.018.014-.019.014-.018.013-.019.014-.018.014-.019.013-.019.014-.019.014-.019.013-.019.014-.02.013-.019.014-.02.014-.02.013-.02.013-.02.014-.02.013-.02.014-.02.013-.02.014-.021.013-.021.014-.02.013-.022.013-.021.014-.021.013-.022.013-.021L9.4 24l.013-.022.013-.022.013-.022.014-.022.013-.022.013-.022.013-.023.013-.023.013-.022.013-.024.014-.023.013-.023.013-.023.013-.024.012-.023.013-.024.013-.024.013-.024.013-.024.013-.024.013-.025.013-.024.012-.025.013-.025.013-.024.013-.025.012-.026.013-.025.013-.025.012-.026.013-.026.012-.026.013-.026.012-.026.013-.026.013-.028.026-.051.03-.05.034-.047.037-.045.04-.042.043-.039.046-.036.048-.033.05-.029.052-.025.054-.022.056-.017.056-.014.057-.01.058-.005.058-.002.058.003.058.007.057.011.056.015.055.019.053.023.052.026.05.03.047.034.045.037.042.04.039.043.036.046.032.048.03.05.025.053.021.054.018.055.014.056.01.058.005.057.001.058-.003.058-.006.058-.011.057-.015.056-.02.055-.022.053-.014.03-.015.03-.014.03-.015.031-.014.03-.015.03-.015.03-.014.03-.015.03-.015.029-.015.03-.015.029-.015.029-.015.029-.015.029-.015.028-.015.029-.015.028-.016.029-.015.028-.015.028-.016.028-.015.028-.016.028-.015.028-.016.027-.015.027-.016.028-.016.027-.015.027-.016.027-.016.027-.016.026-.016.027-.016.027-.016.026-.016.026-.016.026-.016.026-.017.026-.016.026-.016.025-.017.026-.016.025-.017.026-.016.025-.016.025-.017.025-.017.024-.016.025-.017.025-.017.024-.017.024-.017.024-.016.025-.017.024-.017.023-.017.024-.017.024-.017.023-.018.024-.017.023-.017.023-.017.023-.018.023-.017.023-.018.022-.017.023-.017.022-.018.023-.017.022-.018.022-.018.022-.018.022-.017.021-.018.022-.018.022-.018.021-.018.021-.018.021-.018.022-.018.02-.018.021-.018.021-.018.02-.018.02-.019.022-.018.02-.018.02-.019.02-.018.02-.019.02-.018.02-.018.019-.019.019-.019.02-.018.018-.019.02-.019.019-.019.018-.018.019-.02.019-.018.018-.019.018-.02.02-.018.017-.02.018-.018.018-.02.018-.018.018-.02.017-.019.018-.019.017-.02.017-.019.017-.02.017-.019.017-.019.017-.02.017-.019.016-.02.016-.02.017-.019.016-.02.016-.02.016-.019.016-.02.016-.02.016-.02.015-.02.015-.02.016-.02.015-.02.015-.019.015-.02.015-.02.015-.02.014-.02.014-.02.015-.021.014-.02.014-.02.014-.02.014-.021.014-.02.014-.02.013-.021.014-.02.013-.021.013-.02.013-.021.013-.02.013-.022.013-.02.013-.02.012-.022.013-.02.012-.021.012-.021.012-.02.012-.021.012-.022.012-.02.011-.02.012-.022.011-.021.012-.021.01-.021.012-.02.01-.022.011-.021.011-.022.01-.02.011-.021.01-.022.01-.021.011-.021.01-.021.01-.022.01-.021.01-.021.009-.021.009-.022.01-.022.009-.02.009-.022.009-.022.009-.02.008-.022.009-.022.009-.022.008-.021.008-.021.008-.022.009-.022.008-.021.007-.022.008-.021.008-.022.007-.021.008-.022.007-.022.007-.021.007-.022.007-.022.007-.022.007-.022.006-.02.007-.023.006-.022.006-.02.006-.023.007-.022.006-.021.005-.022.006-.023.006-.021.005-.022.005-.022.006-.022.005-.022.005-.021.005-.022.005-.022.005-.022.004-.022.005-.021.004-.022.004-.022.005-.022.004-.022.004-.022.003-.022.004-.022.004-.022.003-.021.004-.022.003-.022.003-.022.003-.023.003-.02.003-.022.003-.023.003-.022.002-.021.003-.022.002-.022.002-.022.003-.022.002-.022.001-.022.002-.021.002-.022.002-.022.001-.022.002h-.022l-.021.002-.022.001-.022.001-.022.001-.022.001h-.022l-.02.001H6.23l-.022.001H6.013l-.022-.001H5.97l-.022-.002h-.022l-.021-.002h-.022l-.022-.002-.021-.001-.021-.001-.022-.002-.022-.002-.02-.001-.022-.002-.022-.002-.022-.002-.021-.002-.021-.002-.022-.002-.022-.002-.02-.003-.021-.002-.022-.003-.022-.002-.021-.003-.022-.003-.02-.003-.021-.003-.022-.003-.021-.004-.021-.003-.02-.003-.022-.004-.022-.003-.021-.004-.021-.004-.02-.003-.022-.005-.02-.003-.022-.005-.021-.004-.02-.004-.022-.004-.021-.005-.02-.004-.022-.005-.02-.005-.021-.005-.02-.004-.021-.005-.022-.005-.02-.006-.021-.005-.02-.005-.021-.005-.02-.006-.022-.005-.02-.006-.02-.006-.021-.005-.021-.006-.02-.006-.021-.007-.02-.006-.02-.006-.021-.006-.02-.006-.02-.007-.022-.006-.02-.007-.02-.006-.02-.007-.02-.007-.02-.007-.02-.007-.02-.007-.021-.007-.02-.008-.02-.007-.02-.007-.02-.007-.02-.008-.02-.008-.02-.007-.02-.008-.019-.008-.02-.008-.02-.008-.02-.008-.02-.008-.02-.008-.038-.017-.04-.016-.038-.018-.04-.017-.038-.018-.039-.018-.038-.018-.039-.019-.038-.018-.038-.02-.038-.019-.038-.02-.038-.02-.037-.02-.038-.02-.038-.021-.037-.021-.037-.021-.037-.022-.037-.021-.036-.022L3.306 27l-.036-.022-.036-.023-.037-.023-.036-.023-.035-.024-.036-.023-.036-.024-.035-.024-.035-.025-.035-.025-.035-.024-.035-.026-.035-.025-.034-.026-.035-.026-.034-.026-.034-.026-.034-.027-.033-.026-.034-.027-.033-.027-.034-.028-.033-.027-.032-.028-.033-.028-.033-.028-.032-.029-.032-.028-.033-.03-.032-.028-.031-.03-.032-.029-.031-.03-.032-.03-.03-.03-.032-.03-.03-.03-.03-.03L2 25.952l-.03-.03-.03-.032-.03-.031-.03-.032-.03-.031-.029-.032-.029-.033-.029-.032-.028-.032-.029-.033-.028-.033-.028-.033-.028-.033-.028-.033-.028-.034-.027-.034-.027-.034-.027-.034-.027-.034-.027-.034-.026-.035-.026-.034-.026-.035-.026-.035-.026-.035-.025-.036-.025-.035-.025-.036-.025-.036-.025-.036-.024-.036-.024-.036-.024-.037-.024-.036-.023-.037-.024-.037-.023-.037-.022-.037-.023-.037-.022-.037-.023-.038-.022-.038-.021-.038-.022-.038-.021-.038-.021-.038-.02-.038-.021-.039-.02-.038-.02-.04-.02-.038-.02-.04-.02-.038-.019-.04-.019-.039-.018-.04-.019-.039-.018-.04-.018-.04-.018-.04-.017-.04-.017-.04-.017-.04-.017-.04L.46 23.6l-.016-.04-.016-.042-.016-.04-.015-.041-.015-.042-.015-.04-.015-.042-.014-.041-.014-.042-.014-.041-.013-.042-.013-.042-.013-.042-.013-.042-.012-.042-.012-.042-.012-.042-.012-.043-.01-.042-.012-.042-.01-.043-.01-.043-.01-.042-.01-.043-.01-.043-.01-.043-.008-.042-.004-.023-.005-.021-.004-.022-.004-.021-.004-.022-.004-.022-.004-.021-.003-.022-.004-.022-.004-.022-.003-.021-.004-.022-.003-.022-.004-.022-.003-.021-.003-.022-.003-.022-.003-.022-.003-.022-.003-.022-.002-.022-.003-.021-.003-.022-.002-.022-.003-.022-.002-.022-.002-.022-.003-.022-.002-.022-.002-.022-.002-.022-.001-.022-.002-.022-.002-.022-.002-.022-.001-.022-.002-.023v-.022l-.002-.022-.001-.022-.001-.022-.001-.022-.001-.022-.001-.022-.001-.023v-.022l-.001-.022v-.022L0 21.394v-.066L0 21.306v-.09l.001-.022v-.022l.001-.022v-.023l.001-.022.001-.022.001-.023.001-.022.001-.022.001-.023.002-.022.001-.022.001-.023.002-.022.002-.022.001-.023.002-.022.002-.022.002-.023.002-.022.002-.023.003-.022.002-.022.003-.023.002-.022.003-.022.003-.023.002-.022.003-.022.003-.023.003-.022.004-.023.003-.022.003-.022.004-.023.004-.022.003-.022.004-.023.004-.022.004-.022.004-.023.004-.022.005-.022.004-.023.005-.022.004-.022.005-.023.005-.022.004-.022.005-.023.006-.022.005-.022.005-.022.005-.023.006-.022.005-.022.006-.022.006-.022.006-.023.006-.022.006-.022.006-.022.006-.022.007-.023.006-.022.007-.022.007-.022.006-.022.007-.022.007-.022.007-.022.008-.022.007-.022.007-.022.008-.022.007-.022.008-.022.008-.022.008-.022.008-.022.008-.022.008-.022.009-.022.008-.022.009-.021.008-.022.01-.022.008-.022.009-.021.01-.022.008-.022.01-.022.009-.021.01-.022.01-.022.009-.021.01-.022.01-.021.01-.022.01-.021.01-.022.01-.021.01-.022.011-.021.011-.022.01-.021.012-.021.01-.022.012-.02.01-.022.012-.021.012-.022.011-.02.012-.022.012-.021.012-.021.011-.02.013-.022.012-.021.012-.021.012-.02.013-.022.013-.021.012-.02.013-.022.013-.02.013-.021.013-.02.013-.021.014-.021.013-.02.014-.021.013-.021.014-.02.014-.02.014-.021.014-.02.014-.021.015-.02.014-.021.015-.02.014-.02.015-.02.015-.02.015-.02.015-.02.015-.021.016-.02.015-.02.015-.02.016-.02.016-.02.016-.02.016-.02.016-.019.016-.02.016-.02.017-.02.016-.018.016-.02.017-.02.017-.019.017-.02.017-.019.017-.019.018-.02.017-.019.017-.019.018-.019.018-.019.018-.02.018-.018.017-.019.019-.019.018-.019.018-.019.019-.019.018-.018.019-.019.019-.019.019-.018.019-.02.018-.017.02-.019.02-.018.019-.019.02-.018.019-.018.02-.019.02-.017.02-.019.02-.018.02-.018.02-.018.02-.018.02-.018.022-.018.02-.017.021-.018.021-.018.021-.017.021-.018.022-.018.021-.017.022-.017.021-.018.022-.017.022-.018.022-.017.022-.017.022-.017.022-.017.023-.017.022-.018.023-.016.023-.017.022-.017.023-.017.024-.016.023-.017.023-.017.023-.016.024-.017.023-.016.024-.017.024-.016.024-.017.024-.016.024-.016.024-.016.025-.016.024-.016.025-.016.025-.016.024-.016.025-.016.025-.015.025-.016.025-.016.026-.015.025-.016.026-.015.026-.016.026-.015.025-.015.026-.016.027-.015.026-.015.026-.015.027-.015.026-.015.027-.015.027-.015.026-.015.028-.014.027-.015.027-.015.028-.014.027-.015.028-.014.027-.015.028-.014.028-.014.028-.015.028-.014.029-.014.028-.014.028-.014.03-.014.028-.014.029-.014.028-.013.03-.014.029-.014.03-.013.029-.014.03-.013.029-.014.03-.013.03-.013.03-.014.03-.013.03-.013.03-.013.03-.013.03-.013.032-.013.03-.012.031-.013.032-.013.03-.012.032-.013.031-.012.032-.013.032-.012.031-.012.03-.012.055-.02.057-.014.057-.011.057-.007.058-.003z" /><path fill="#FFF" d="M24.753 2.531h-.052l-.026.001h-.026l-.026.002h-.025l-.025.002-.025.001-.025.001-.025.002-.025.002-.024.002-.025.002-.023.002-.024.002-.024.002-.024.003-.023.003-.023.002-.024.003-.023.004-.023.003-.022.003-.023.004-.022.003-.022.004-.023.004-.022.004-.022.004-.021.004-.022.004-.021.005-.021.004-.022.005-.02.005-.022.005-.02.005-.021.005-.02.006-.02.005-.022.006-.02.005-.02.006-.02.006-.02.006-.02.006-.02.006-.019.006-.019.007-.02.007-.019.006-.019.007-.019.007-.02.007-.018.007-.018.007-.02.008-.018.007-.019.008-.018.007-.018.008-.019.008-.017.008-.02.009-.017.008-.018.008-.018.008-.018.01-.018.008-.017.008-.018.01-.018.009-.017.009-.017.01-.018.008-.017.01-.017.01-.017.01-.018.01-.017.01-.017.009-.017.01-.017.01-.017.011-.017.01-.016.011-.017.011-.017.011-.016.011-.017.011-.016.011-.017.012-.017.012-.016.011-.016.012-.017.012-.016.012-.016.012-.016.012-.017.013-.016.012-.016.013-.016.013-.016.012-.016.013-.016.013-.016.013-.016.014-.016.014-.016.013-.016.014-.016.014-.015.014-.016.014-.016.014-.015.014-.016.015-.016.015-.015.014-.016.015-.016.015-.015.015-.015.015-.016.016-.016.016-.015.015-.015.016-.015.016-.016.016-.015.016-.015.017-.016.016-.015.017-.015.016-.015.017-.015.017-.015.017-.016.017-.015.018-.015.017-.014.018-.015.017-.015.018-.015.018-.015.018-.015.018-.015.019-.015.018-.014.018-.015.02-.015.018-.015.02-.014.018-.015.02-.014.019-.015.02-.015.019-.014.02-.015.02-.014.02-.015.02-.014.02-.014.02-.015.02-.014.02-.014.021-.015.02-.014.022-.014.02-.014.021-.015.022-.014.021-.014.021-.014.022-.014.022-.014.022-.014.021-.014.022-.014.023-.014.022-.014.022-.014.022-.014.023-.014.023-.013.022-.014.023-.014.023-.014.023-.013.023-.014.024-.014.023-.013.023-.014.024-.014.024-.013.023-.013.024-.014.024-.014.024-.013.024-.013.024-.014.025-.013.024-.014.025-.013.025-.013.024-.014.025-.013.025-.013.025-.013.024-.027.051-.026.051-.026.05-.026.052-.026.052-.026.052-.026.053-.026.052-.025.053-.026.053-.026.054-.025.054-.025.054-.026.055-.025.054-.025.055-.025.056-.025.055-.025.056-.025.056-.025.056-.025.056-.025.057-.025.057-.024.057-.025.057-.025.058-.024.057-.025.058-.025.058-.024.059-.025.058-.024.058-.025.06-.024.058-.05.118-.048.12-.05.118-.048.12-.05.12-.098.241-.05.122-.05.12-.05.122-.05.122-.05.122-.026.06-.025.062-.026.06-.026.062-.025.06-.026.062-.026.06-.026.061-.027.061-.026.061-.026.061-.027.061-.027.06-.027.061-.027.061-.027.06-.027.061-.028.06-.028.061-.028.06-.028.06-.028.061-.028.06-.029.06-.029.06-.029.06-.029.06-.03.06-.03.059-.029.06-.03.058-.03.06-.031.059-.03.058-.016.03-.016.03-.016.028-.016.03-.015.028-.016.03-.016.03-.016.028-.016.029-.017.03-.016.028-.016.029-.016.029-.017.029-.016.028-.017.03-.017.028-.016.028-.017.03-.017.028-.017.028-.017.029-.017.028-.018.028-.017.029-.017.028-.018.028-.018.028-.017.028-.018.028-.018.028-.018.028-.018.028-.018.028-.018.028-.019.027-.018.028-.018.027-.02.028-.018.027-.019.028-.019.027-.019.027-.019.027-.02.028-.019.027-.019.026-.02.027-.02.027-.02.027-.019.026-.02.027-.02.027-.02.026-.02.027-.02.026-.021.026-.021.026-.021.026-.021.026-.021.026-.021.026-.021.026-.022.025-.021.026-.022.025-.022.026-.022.025-.022.025-.022.025-.022.025-.023.025-.022.025-.023.025-.023.024-.023.025-.023.024-.023.025-.024.024-.022.023-.023.023-.023.023-.023.023-.022.022-.022.022-.023.023-.022.022-.023.022-.022.022-.022.021-.023.022-.023.022-.022.022-.023.02-.022.022-.023.021-.023.021-.022.021-.023.022-.022.02-.023.02-.023.022-.023.02-.022.02-.024.021-.022.02-.023.02-.023.02-.023.02-.023.02-.022.02-.023.02-.023.019-.023.02-.023.019-.023.02-.023.018-.023.02-.023.018-.023.02-.023.018-.023.019-.024.019-.022.018-.024.018-.023.019-.023.018-.024.019-.023.017-.023.018-.023.018-.023.018-.024.018-.023.018-.024.017-.022.017-.024.018-.023.017-.024.017-.024.018-.023.016-.023.017-.024.017-.023.017-.024.016-.023.017-.024.017-.024.016-.023.016-.024.017-.024.016-.023.015-.024.017-.024.016-.023.015-.024.016-.024.016-.023.015-.024.016-.025.015-.023.015-.024.016-.024.014-.023.015-.025.016-.024.015-.023.014-.025.015-.024.015-.023.014-.024.014-.025.015-.048.029-.048.028-.048.028-.049.028-.048.027-.048.027-.049.026-.048.027-.05.026-.048.026-.048.025-.05.026-.049.025-.048.024-.05.024-.049.025-.049.024-.049.023-.05.024-.049.023-.049.022-.05.023-.05.022-.049.022-.05.022-.049.022-.05.021-.05.021-.05.02-.05.021-.05.02-.05.021-.05.02-.05.02-.05.02-.05.019-.05.019-.051.019-.05.019-.052.018-.05.019-.05.018-.052.018-.05.018-.051.017-.051.018-.052.017-.05.017-.052.017-.051.017-.051.017-.052.017-.051.016-.052.016-.052.017-.051.015-.052.016-.04.013.006.011.04.068.041.07.042.07.043.073.044.074.045.074.045.076.047.077.047.077.047.078.024.039.025.04.024.038.024.04.025.04.024.039.025.04.025.038.025.04.025.04.025.039.025.039.026.039.025.04.025.038.025.039.026.038.025.039.025.038.025.038.026.038.025.037.025.038.025.036.025.037.025.036.025.036.025.035.025.036.024.034.025.035.024.033.024.034.024.033.024.032.024.031.023.032.023.03.023.03.023.03.022.028.022.028.022.027.021.026.012.016.007-.005.017-.013.018-.013.018-.013.019-.014.018-.014.019-.014.018-.014.02-.015.019-.015.02-.015.02-.016.019-.015.02-.016.02-.017.02-.016.021-.016.021-.017.021-.017.021-.018.022-.018.021-.017.022-.018.022-.019.022-.018.021-.019.023-.019.022-.019.022-.019.023-.02.046-.04.046-.04.046-.04.047-.042.047-.042.048-.043.048-.043.048-.044.048-.045.05-.045.049-.046.049-.045.05-.047.05-.047.05-.047.05-.047.05-.048.05-.049.051-.048.051-.049.05-.049.052-.05.05-.049.052-.05.05-.05.052-.049.05-.05.052-.05.05-.05.051-.05.102-.101.1-.1.101-.1.1-.1.099-.099.098-.098.193-.193.095-.095.093-.093.092-.092.09-.09.089-.087.044-.044.043-.043.043-.042.043-.041.042-.041.042-.04.04-.04.042-.04.04-.039.04-.037.039-.038.038-.036.039-.036.038-.036.038-.035.037-.034.036-.033.037-.033.036-.032.036-.031.034-.03.019-.016.018-.016.018-.015.018-.015.017-.014.018-.015.017-.014.018-.014.02-.016.017-.013.017-.014.02-.015.018-.014.02-.014.019-.015.018-.013.02-.014.02-.014.028-.019.026-.018.026-.018.027-.018.027-.017.026-.018.027-.017.027-.018.026-.017.027-.018.027-.017.027-.017.027-.017.026-.016.026-.017.028-.016.027-.017.027-.017.026-.016.027-.016.027-.016.027-.016.027-.016.027-.015.027-.016.027-.016.027-.015.027-.016.027-.014.026-.016.028-.015.027-.015.027-.015.027-.014.027-.015.027-.014.027-.015.027-.015.027-.014.027-.014.028-.014.026-.014.028-.014.027-.014.027-.014.027-.013.027-.013.028-.014.027-.013.026-.014.028-.013.027-.013.027-.013.027-.013.028-.013.027-.013.027-.012.028-.013.053-.025.055-.024.054-.025.054-.024.055-.023.054-.024.054-.023.055-.023.054-.022.054-.022.054-.022.055-.022.054-.021.054-.021.054-.021.054-.02.054-.02.054-.02.054-.02.054-.02.054-.02.054-.019.054-.018.053-.019.054-.018.054-.019.053-.017.054-.018.054-.018.053-.017.053-.017.053-.017.054-.017.053-.017.053-.016.053-.016.053-.016.053-.016.052-.016.053-.016.053-.015.052-.015.052-.015.053-.016.052-.015.052-.014.052-.015.052-.014.053-.015.051-.014.052-.014.052-.014.051-.014.103-.028.102-.027.102-.027.101-.027.102-.027.1-.026.1-.026.199-.051.098-.026.098-.026.098-.025.096-.026.097-.025.095-.026.096-.026.047-.012.047-.013.047-.013.047-.013.047-.013.046-.013.047-.013.046-.013.046-.013.046-.013.046-.014.046-.013.045-.013.045-.014.045-.013.045-.014.045-.014.044-.013.044-.014.045-.014.044-.014.044-.014.043-.014.044-.014.043-.015.043-.014.043-.015.043-.014.042-.015.042-.015.043-.015.042-.015.041-.015.042-.015.042-.016.04-.015.041-.016.042-.016.04-.016.04-.016.04-.016.04-.016.04-.017.04-.016.04-.017.039-.017.039-.017.038-.017.039-.018.038-.017.04-.019.018-.008.018-.009.019-.009.02-.009.018-.009.019-.01.019-.008.018-.01.018-.009.02-.009.018-.01.018-.009.019-.01.018-.009.018-.009.019-.01.018-.01.018-.009.018-.01.018-.01.018-.01.018-.009.018-.01.018-.01.017-.01.018-.01.019-.01.017-.01.018-.01.017-.01.017-.01.018-.011.017-.01.017-.01.018-.011.017-.01.018-.012.017-.01.017-.01.017-.012.017-.01.017-.011.017-.011.017-.011.016-.011.018-.012.016-.01.017-.011.017-.012.016-.011.017-.011.017-.012.016-.012.016-.011.017-.012.016-.011.017-.012.016-.012.016-.012.016-.012.016-.012.016-.012.017-.012.016-.013.015-.011.016-.013.016-.012.016-.013.016-.012.016-.013.015-.013.016-.012.016-.013.015-.013.016-.013.015-.013.016-.013.015-.013.016-.013.015-.014.015-.013.016-.014.015-.013.015-.014.015-.014.015-.013.016-.014.014-.014.016-.015.015-.013.014-.014.015-.015.015-.014.015-.015.015-.014.014-.015.015-.015.015-.014.015-.015.014-.015.015-.015.014-.015.015-.015.014-.016.015-.016.014-.015.014-.015.015-.016.015-.016.014-.016.014-.016.014-.016.014-.016.015-.017.014-.016.013-.016.015-.017.014-.017.014-.017.013-.016.014-.017.014-.017.014-.018.014-.017.014-.017.013-.018.014-.017.014-.018.014-.018.013-.018.014-.018.013-.019.014-.018.013-.018.014-.019.013-.019.014-.018.013-.02.014-.018.013-.02.013-.019.013-.019.013-.02.014-.02.013-.019.013-.02.013-.02.013-.02.013-.02.013-.02.013-.021.013-.021.013-.02.012-.022.013-.02.013-.022.013-.021.013-.022.012-.021.013-.022.013-.022.012-.022.013-.022.012-.022.012-.023.013-.022.012-.023.013-.023.012-.023.012-.023.012-.023.012-.023.013-.024.012-.024.012-.024.012-.024.012-.024.012-.024.012-.025.012-.024.012-.025.012-.026.006-.013.006-.013.006-.014.007-.013.006-.013.006-.014.005-.013.006-.014.006-.013.006-.013.005-.013.006-.014.006-.013.005-.013.005-.013.006-.014.005-.013.005-.013.005-.013.005-.013.005-.013.005-.013.005-.013.005-.013.004-.013.005-.013.004-.012.005-.014.005-.013.004-.012.004-.013.004-.013.005-.013.004-.012.004-.013.004-.013.004-.012.003-.013.004-.013.004-.012.004-.013.003-.013.004-.013.003-.012.004-.012.003-.013.003-.012.004-.013.003-.013.003-.012.003-.012.003-.013.003-.012.003-.013.003-.012.003-.013.003-.012.002-.012.003-.013.002-.012.003-.012.002-.013.003-.012.002-.012.002-.012.003-.013.002-.012.002-.012.002-.012.002-.012.002-.013.002-.012.002-.012.002-.012.001-.012.002-.012.002-.013.001-.012.002-.012.001-.012.002-.012.001-.012.002-.012v-.012l.002-.012.001-.013.001-.012.001-.012.002-.011v-.013l.001-.012.001-.012.001-.012v-.012l.002-.012v-.024l.001-.012v-.012l.001-.012v-.012l.001-.012V6.853l.001-.012V6.733l-.001-.012v-.024l-.001-.012-.001-.012V6.66l-.001-.013v-.012l-.002-.012v-.012L29.46 6.6l-.001-.012-.001-.012-.001-.012-.001-.012-.001-.012-.001-.012-.001-.012-.002-.013-.001-.012-.001-.012-.002-.012-.001-.012-.002-.013-.001-.012-.002-.012-.001-.012-.002-.012-.002-.013-.002-.012-.002-.012-.001-.012-.002-.012-.004-.025-.005-.025-.004-.025-.005-.024-.005-.025-.005-.025-.005-.025-.005-.025-.006-.025-.006-.025-.006-.025-.006-.025-.007-.026-.007-.025-.007-.025-.007-.026-.007-.025-.008-.026-.008-.026-.008-.025-.008-.026-.008-.026-.01-.026-.008-.026-.01-.026-.008-.026-.01-.026-.01-.026-.01-.027-.01-.026-.01-.026-.011-.027-.011-.027-.011-.026-.012-.027-.011-.027-.012-.027-.012-.027-.012-.027-.013-.027-.013-.027-.012-.027-.014-.028-.013-.027-.014-.027-.014-.028-.014-.027-.014-.028-.015-.028-.014-.028-.015-.028-.016-.027-.015-.028-.016-.028-.014-.026-.015-.025-.014-.025-.015-.025-.016-.025-.015-.025-.015-.025-.016-.025-.016-.025-.017-.024-.016-.025-.017-.025-.017-.025-.017-.024-.017-.025-.018-.025-.017-.024-.018-.024-.018-.025-.019-.024-.018-.024-.02-.024-.018-.025-.02-.024-.019-.024-.02-.024-.019-.023-.02-.024-.02-.024-.02-.023-.02-.023-.021-.024-.021-.023-.021-.023-.02-.023-.022-.023-.022-.023-.021-.023-.022-.022-.022-.023-.023-.022-.022-.022-.022-.023-.023-.022-.023-.021-.022-.022-.024-.022-.023-.021-.023-.022-.024-.02-.023-.022-.024-.02-.024-.022-.024-.02-.024-.02-.025-.021-.024-.02-.025-.02-.024-.02-.025-.02-.025-.02-.025-.02-.025-.018-.025-.02-.026-.018-.026-.02-.025-.018-.026-.018-.025-.018-.026-.018-.027-.018-.025-.018-.026-.017-.027-.018-.026-.017-.027-.017-.026-.016-.027-.017-.026-.017-.027-.016-.027-.016-.027-.016-.027-.015-.026-.015-.027-.016-.028-.015-.027-.015-.027-.014-.027-.015-.028-.014-.027-.014-.027-.013-.028-.014-.028-.013-.027-.014-.028-.013-.013-.005-.015-.007-.013-.006-.014-.006-.013-.007-.014-.006-.014-.006-.014-.006-.014-.006-.013-.005-.015-.006-.014-.006-.013-.006-.014-.005-.014-.006-.014-.006-.014-.005-.013-.005-.015-.006-.013-.005-.014-.005-.014-.006-.014-.005-.014-.005-.013-.005-.015-.005-.014-.005-.013-.005-.015-.004-.013-.005-.014-.005-.015-.005-.012-.004-.015-.004-.014-.005-.013-.004-.014-.004-.014-.005-.015-.004-.012-.004-.015-.004-.014-.005-.013-.003-.014-.004-.015-.004-.012-.004-.015-.004-.013-.003-.014-.004-.015-.004-.013-.003-.014-.003-.013-.004-.015-.003-.013-.003-.013-.003-.015-.004-.014-.003-.013-.003-.014-.003-.013-.003-.014-.002-.014-.003-.014-.003-.033-.007-.033-.006-.034-.006-.032-.006-.033-.005-.032-.006-.033-.005-.032-.005-.031-.005-.032-.005-.032-.005-.03-.004-.032-.004-.03-.004-.031-.004-.03-.003-.031-.003-.03-.004-.03-.003-.03-.002-.03-.003-.029-.003-.029-.002-.028-.002-.029-.002-.029-.002-.028-.001-.028-.002h-.028l-.027-.002h-.028l-.028-.002h-.108z" /><path d="M10.699 15.727c.37.623 2.111 3.774 2.837 3.852 1.002.109 4.521-3.967 5.403-4.574 3.94-2.713 8.997-1.311 11.35-6.295.713-1.514.53-2.972-.284-4.417-.794-1.408-2.3-2.575-3.901-2.89-6.743-1.325-6.548 7.277-9.79 10.578-1.71 1.743-3.452 2.357-5.715 2.937" fill="#59A51E" /></g></symbol><symbol viewBox="0 0 32 32" id="color-call"><g fill="none" fill-rule="evenodd"><path d="M28.705 2.2a.907.907 0 0 0-.836-.973L11.592.003a.907.907 0 0 0-.972.836l-2.172 28.87c-.037.5.337.935.837.973l16.276 1.224a.907.907 0 0 0 .973-.836L28.705 2.2z" fill="#D4D4D4" /><path d="M25.852 5.977c.027-.337-.242-.63-.6-.656L13.56 4.496c-.359-.025-.672.227-.699.564l-1.56 19.458c-.026.336.243.63.601.655l11.692.825c.358.026.671-.227.698-.563l1.56-19.458zM17.911 2.772l2.949.23" fill="#FFF" /><path d="M17.911 2.772l2.949.23" stroke="#B0B0B0" stroke-linecap="round" stroke-linejoin="round" /><path d="M10.62 4.628l17.25 1.405M9.287 24.844l17.249 1.405" fill="#FFF" /><path d="M17.911 27.15a1.428 1.428 0 1 1-.836 2.73 1.428 1.428 0 0 1 .836-2.73z" fill="#B0B0B0" /><path fill="#FF5F00" d="M3.877.286l.03.004.03.005.029.007.029.009.028.01.583.239.577.235.287.116.285.114.285.113.285.11.286.11.286.106.286.104.144.05.145.052.145.05.146.05.144.047.146.047.15.047.146.047.147.044.15.044.03.01.028.011.027.013.027.014.025.016.025.018.023.019.023.02.02.022.02.023.019.024.016.025.016.026.013.027.012.027.01.029.01.029.006.03.005.029.003.03.002.03v.03l-.003.03-.004.03-.006.03-.008.03-.01.028-.01.028-.013.027-.014.027-.016.026-.018.024-.019.024-.02.022-.022.021-.023.02-.024.018-.025.017-.026.015-.027.014-.028.012-.028.01-.03.009-.028.006-.03.005-.03.004-.03.001h-.03l-.03-.003-.03-.004-.03-.006-.03-.007-.154-.046-.156-.047-.154-.049-.15-.048-.153-.048-.153-.051-.15-.051-.15-.052-.148-.052-.15-.052-.295-.107-.294-.11-.29-.111-.292-.113-.29-.115-.29-.115-.288-.118-.579-.235-.583-.239-.028-.012-.027-.014-.026-.015-.025-.017-.023-.019-.023-.02-.022-.021-.02-.023-.018-.023-.018-.025-.015-.026-.015-.027-.012-.027L3.362.95 3.352.92l-.007-.03L3.34.863l-.004-.03-.002-.03v-.03l.002-.03.003-.03.005-.03.008-.03.008-.028.01-.029.013-.027.014-.027.016-.026L3.43.49l.018-.024.02-.023.021-.021.023-.02.024-.019.024-.017.026-.016.027-.014.027-.013.028-.01.03-.01.029-.007.03-.006.03-.003.03-.002h.03z" /><path fill="#59A51E" d="M5.347 4.33l.023.003.023.003.175.028.172.026.171.025.171.025.172.023.172.022.17.022.17.02.17.018.172.018.17.016.17.014.173.014.172.012.173.01.175.01.023.001.023.003.023.004.023.005.023.006.022.007.022.008.022.01.02.01.021.01.02.013.02.013.019.014.018.015.018.015.016.017.016.017.015.018.015.018.013.02.012.02.012.02.01.02.01.022.008.022.008.022.006.023.006.023.004.023.003.023.002.023.001.024v.047l-.003.023-.004.023-.004.023-.006.023-.006.022-.008.023-.008.021-.01.022-.01.02-.012.021-.013.02-.014.019-.014.018-.015.018-.016.017-.017.017-.018.015-.018.015-.019.014-.02.013-.02.012-.02.01-.021.01-.022.01-.022.008-.022.007-.023.005-.023.005-.023.004-.024.003-.023.001H8.09l-.18-.009-.183-.012-.18-.012-.179-.014-.18-.015-.18-.017-.177-.018-.177-.02-.179-.02-.177-.023-.175-.023-.177-.024-.178-.025-.177-.026-.178-.027-.177-.029-.023-.004-.023-.005-.023-.006-.022-.008-.022-.008-.021-.01-.021-.01-.02-.012-.02-.012-.02-.013-.018-.015-.018-.015-.018-.016-.016-.016-.016-.018-.015-.018-.014-.019-.013-.019-.012-.02-.011-.02-.01-.022-.01-.021-.008-.022-.007-.023-.006-.022-.005-.023-.004-.023-.003-.024-.002-.023V4.81l.002-.023.002-.023.004-.024.005-.023.005-.022.007-.023.008-.022.01-.021.01-.022.01-.02.012-.02.013-.02.014-.02.014-.017.016-.018.016-.017.017-.016.018-.015.018-.015.02-.013.02-.013.02-.012.02-.01.022-.01.022-.009.022-.007.022-.007.023-.006.023-.004.023-.004.024-.002.023-.001h.023z" /><path fill="#013579" d="M8.414 7.185l.031.002.03.004.03.006.03.008.03.01.028.01.028.014.027.015.026.016.025.018.024.02.023.02.02.023.02.024.019.024.017.026.015.027.013.028.012.028.01.03.008.029.006.03.005.03.002.031v.061l-.003.031-.006.03-.006.03-.01.03-.01.03-.012.028-.014.027-.016.027-.017.025-.019.024-.02.024-.022.022-.023.02-.024.02-.025.017-.026.016-.028.014-.028.012-.029.011-.03.01-.302.082-.3.084-.302.087-.302.088-.61.18-.306.088-.306.089-.31.087-.31.084-.155.041-.157.041-.156.039-.157.039-.158.037-.157.036-.158.035-.16.034-.157.032-.159.03-.161.03-.158.027-.03.004-.031.003h-.03l-.032-.001-.03-.003-.03-.006-.03-.007-.03-.009-.029-.01-.028-.013-.027-.014-.027-.016-.025-.017-.025-.02-.023-.02-.021-.021-.02-.023-.02-.025-.017-.025-.016-.027-.014-.027-.012-.028-.011-.029-.009-.03-.007-.03-.005-.03L3 9.003 3 8.972v-.03l.003-.032.004-.03.006-.03.008-.03.01-.03.012-.028.013-.028.015-.026.017-.026.018-.025.02-.024.02-.022.023-.021.024-.02.025-.018.026-.017.026-.015.028-.013.029-.012.029-.01.03-.007.03-.007.152-.025.149-.028.15-.03.15-.03.15-.031.15-.033.15-.035.15-.035.3-.075.151-.04.151-.039.302-.082.301-.085.304-.088.304-.087.607-.18.306-.089.307-.088.307-.086.305-.083.03-.007.03-.006.03-.003.032-.002z" /></g></symbol><symbol viewBox="0 0 32 32" id="color-chat"><g fill="none" fill-rule="evenodd"><path d="M0 18.013a2.28 2.28 0 0 1 2.28-2.28h10.44a2.28 2.28 0 0 1 2.28 2.28v5.594a2.28 2.28 0 0 1-2.28 2.28H2.28A2.28 2.28 0 0 1 0 23.606v-5.594z" fill="#D4D4D4" /><path d="M3.242 25.138c.026.6.11 1.327-.048 1.918-.081.303-.176.6-.263.901-.063.222-.326.482-.187.666.086.114.291.051.398.013.376-.133.706-.398 1.014-.642 1.239-.982 2.371-2.15 3.126-3.55M13.988 9.409a1.268 1.268 0 1 1 0 2.537 1.268 1.268 0 0 1 0-2.537z" fill="#D4D4D4" /><path d="M13.988 9.409a1.268 1.268 0 1 1 0 2.537 1.268 1.268 0 0 1 0-2.537z" stroke="#FFF" stroke-linecap="round" stroke-linejoin="round" /><path d="M30.171 7.32A3.322 3.322 0 0 0 26.851 4H12.49a3.322 3.322 0 0 0-3.32 3.32v8.15a3.322 3.322 0 0 0 3.32 3.32h14.36a3.322 3.322 0 0 0 3.32-3.32V7.32z" fill="#59A51E" /><path d="M25.327 17.342c-.036.84-.153 1.859.068 2.686.113.423.246.84.367 1.261.09.31.457.674.263.932-.12.16-.408.072-.559.019-.526-.186-.987-.558-1.418-.899-1.735-1.375-3.32-3.011-4.377-4.97" fill="#59A51E" /><path d="M14.488 9.677a1.5 1.5 0 1 1-.001 3 1.5 1.5 0 0 1 .001-3zM19.488 9.677a1.5 1.5 0 1 1-.001 3 1.5 1.5 0 0 1 .001-3zM24.488 9.677a1.5 1.5 0 1 1-.001 3 1.5 1.5 0 0 1 .001-3z" fill="#003579" /></g></symbol><symbol viewBox="0 0 32 32" id="color-family"><path d="M24.886 30.983H7.127a2.16 2.16 0 0 1-2.158-2.158V17.678C2.624 17.382.915 16.97.34 16.44-2.269 14.033 10.781 2 16 2c5.22 0 18.269 12.033 15.659 14.44-.573.528-2.276.94-4.614 1.237v11.148a2.16 2.16 0 0 1-2.159 2.158zM16.32 15.861c.72-1 1.643-2.205 2.903-2.333 2.61-.266 3.79 3.727 3.12 5.565-1.514 4.152-4.385 3.083-7.111 5.243l.002-.026c-2.236-1.733-5.351-3.76-5.624-6.871-.398-4.547 4.89-4.852 6.71-1.578z" fill="#FF6118" fill-rule="evenodd" /></symbol><symbol viewBox="0 0 32 32" id="color-healthy"><g fill="#FF6118" fill-rule="evenodd"><path d="M13.956 28.67C8.432 24.388.726 19.38.053 11.69-.97.018 13.186-.336 17.114 8.794" /><path d="M15.952 8.724c1.87-2.578 4.324-6.334 7.841-6.693 6.446-.657 9.358 9.205 7.703 13.744-3.737 10.253-10.829 7.613-17.56 12.95" /><path d="M24.44 3.938l.029.002.028.003.029.005.028.005.019.005.02.005.021.005.021.005.02.006.021.005.02.006.021.005.021.006.02.006.02.006.021.006.02.006.021.007.02.006.021.007.02.006.021.007.02.007.021.007.02.007.02.007.021.007.02.008.02.007.02.007.021.008.02.008.02.008.021.008.02.008.02.008.02.008.02.009.02.008.02.009.02.008.02.01.02.008.02.009.02.009.02.009.02.01.02.008.02.01.02.01.02.009.02.01.02.01.02.009.02.01.019.01.02.01.02.01.019.01.02.01.02.011.019.011.02.01.019.011.02.011.019.01.02.012.018.011.02.011.02.011.018.012.02.011.019.011.019.012.02.012.018.011.02.012.019.012.019.012.019.012.019.012.019.012.018.012.02.013.018.012.02.013.018.012.019.013.037.025.037.026.037.026.037.027.037.026.036.027.037.027.036.028.036.028.036.028.036.028.035.029.036.029.035.029.035.03.035.03.035.03.034.03.034.03.034.03.034.032.034.03.033.032.033.032.033.032.033.032.033.032.032.033.032.033.016.017.016.016.016.017.015.017.016.016.016.017.015.017.016.017.015.017.016.017.015.017.015.017.015.017.016.018.014.017.016.017.014.018.015.017.015.018.015.017.014.018.015.017.015.018.014.018.015.018.014.017.014.019.014.018.014.018.014.018.014.018.014.018.014.018.014.018.013.019.014.018.013.018.014.02.013.018.013.018.013.019.014.018.013.02.013.018.013.019.012.019.013.018.013.02.012.018.013.02.012.018.012.02.012.018.013.02.012.02.012.018.011.02.012.019.012.02.012.019.01.02.012.019.012.02.011.02.011.019.011.02.011.02.011.019.011.02.01.02.011.02.01.02.011.02.01.02.01.02.01.02.01.02.01.02.01.02.01.02.01.021.01.02.009.02.009.02.01.022.008.02.01.02.008.021.009.021.008.02.009.021.008.021.009.02.008.022.008.02.008.021.008.021.008.021.007.02.008.022.008.021.007.02.007.022.007.021.007.022.007.021.007.021.006.021.007.022.006.021.006.021.006.022.007.021.005.02.007.028.005.029.005.028.002.03.002.028v.029l-.001.029-.003.028-.004.029-.006.028-.007.029-.008.027-.01.027-.01.027-.013.027-.013.025-.015.025-.016.024-.016.024-.019.022-.019.022-.02.02-.021.02-.022.019-.023.017-.024.017-.024.015-.026.014-.025.013-.027.012-.027.01-.028.009-.027.008-.029.006-.028.005-.029.003-.029.002-.029.001h-.028l-.03-.003-.028-.003-.028-.005-.029-.006-.028-.008-.027-.009-.027-.01-.027-.011-.026-.013-.025-.014-.024-.016-.024-.016-.023-.017-.022-.02-.021-.019-.02-.02-.02-.022-.018-.023-.017-.023-.016-.024-.015-.025-.013-.026-.012-.026-.011-.027-.01-.027-.008-.027-.004-.017-.005-.014-.004-.015-.004-.015-.005-.015-.004-.015-.005-.015-.004-.015-.005-.015-.005-.014-.005-.015-.005-.015-.006-.016-.005-.014-.005-.015-.006-.015-.005-.015-.006-.015-.006-.015-.005-.015-.006-.015-.007-.016-.006-.014-.006-.015-.006-.016-.007-.015-.006-.015-.007-.015-.006-.015-.007-.015-.007-.015-.007-.015-.007-.015-.007-.015-.007-.015-.008-.016-.007-.015-.008-.015-.007-.015-.008-.015-.008-.015-.007-.015-.008-.015-.009-.015-.008-.016-.008-.014-.008-.016-.008-.015-.009-.015-.008-.015-.01-.015-.008-.015-.008-.015-.01-.015-.008-.015-.01-.015-.008-.015-.01-.015-.009-.015-.01-.015-.009-.015-.01-.015-.009-.015-.01-.014-.01-.015-.009-.015-.01-.015-.01-.015-.01-.015-.01-.014-.01-.015-.01-.015-.01-.014-.011-.015-.01-.015-.011-.015-.01-.014-.012-.015-.01-.014-.011-.015-.011-.014-.011-.015-.011-.014-.011-.015-.012-.014-.011-.015-.011-.014-.011-.014-.012-.015-.012-.014-.011-.014-.012-.015-.012-.014-.011-.014-.012-.014-.012-.014-.012-.014-.012-.014-.012-.014-.012-.014-.013-.014-.012-.014-.012-.014-.013-.014-.012-.014-.013-.013-.012-.014-.013-.014-.012-.013-.013-.014-.013-.014-.013-.013-.013-.014-.012-.013-.027-.027-.026-.026-.027-.027-.026-.026-.027-.026-.027-.026-.027-.026-.028-.025-.027-.025-.028-.025-.028-.025-.028-.025-.028-.024-.029-.025-.028-.024-.03-.023-.028-.024-.029-.023-.03-.023-.028-.023-.03-.023-.03-.022-.029-.022-.03-.022-.03-.022-.029-.021-.03-.021-.03-.021-.03-.02-.015-.01-.015-.011-.016-.01-.015-.01-.015-.01-.015-.01-.015-.01-.015-.01-.016-.009-.015-.01-.015-.009-.015-.01-.016-.008-.015-.01-.015-.009-.015-.01-.016-.008-.015-.01-.015-.008-.016-.009-.015-.009-.015-.008-.016-.009-.015-.008-.015-.009-.016-.008-.015-.008-.016-.009-.015-.008-.015-.008-.016-.008-.015-.008-.015-.007-.016-.008-.015-.008-.016-.007-.015-.008-.015-.007-.016-.007-.015-.008-.015-.007-.015-.007-.016-.007-.015-.007-.015-.007-.016-.006-.015-.007-.015-.007-.015-.006-.016-.007-.015-.006-.015-.006-.015-.006-.015-.006-.015-.006-.016-.006-.015-.006-.015-.006-.015-.005-.015-.006-.015-.005-.015-.006-.015-.005-.015-.005-.015-.005-.015-.005-.015-.005-.014-.005-.015-.005-.015-.004-.015-.005-.014-.004-.015-.005-.015-.004-.015-.004-.014-.004-.015-.004-.014-.004-.015-.004-.014-.004-.015-.003-.014-.004-.014-.003-.016-.004-.028-.007-.028-.01-.027-.01-.027-.01-.026-.013-.025-.014-.025-.015-.024-.016-.023-.017-.022-.019-.022-.02-.02-.02-.02-.02-.018-.023-.017-.024-.016-.024-.015-.024-.014-.026-.012-.026-.011-.027-.01-.027-.009-.027-.007-.028-.006-.029-.004-.028-.003-.029-.002-.029v-.058l.003-.028.004-.029.006-.028.006-.029.008-.027.01-.028.01-.027.012-.026.013-.026.015-.025.015-.024.017-.024.018-.022.019-.022.02-.021.02-.02.023-.019.022-.018.024-.016.024-.016.025-.014.026-.013.027-.012.027-.01.027-.01.028-.008.028-.006.028-.005.03-.004.028-.002.029-.001z" /></g></symbol><symbol viewBox="0 0 32 32" id="color-mail"><g fill="none" fill-rule="evenodd"><path d="M5.752 10.2a.731.731 0 0 1 .607-.835l21.187-3.356a.73.73 0 0 1 .836.607l2.057 12.99a.731.731 0 0 1-.607.836L8.645 23.797a.73.73 0 0 1-.836-.607L5.752 10.2z" fill="#D4D4D4" /><path fill="#B0B0B0" d="M8.724 10.285l.044.004.043.008.042.011.04.015.096.04.1.042.1.044.096.044.096.044.098.046.097.046.095.047.097.047.096.05.187.097.187.1.186.102.184.104.184.106.183.108.18.107.18.108.179.109.356.218.354.218.353.215.176.106.176.105.175.103.176.1.176.101.176.097.177.095.177.092.179.09.088.043.088.043.089.041.09.042.09.04.088.038.111.048.11.044.113.043.115.042.113.04.115.039.118.038.116.037.12.036.12.036.242.07.245.07.248.07.248.07.127.036.125.037.126.038.128.04.126.042.125.042.126.043.128.047.126.048.126.05.126.053.126.055.125.059.119.057.038.021.037.024.034.027.031.03.03.033.025.035.023.037.02.04.015.04.013.042.009.043.005.043v.043l-.002.044-.006.043-.01.043-.014.041-.018.04-.02.038-.025.037-.027.034-.03.031-.032.03-.036.025-.037.023-.039.02-.04.016-.042.012-.043.009-.043.005h-.044l-.043-.002-.044-.006-.042-.01-.041-.014-.04-.018-.112-.054-.106-.05-.108-.047-.11-.046-.111-.045-.112-.042-.112-.04-.115-.04-.117-.04-.118-.038-.116-.037-.12-.036-.12-.036-.12-.034-.244-.07-.247-.07-.249-.07-.25-.072-.125-.037-.126-.038-.128-.04-.126-.042-.126-.042-.128-.045-.126-.047-.125-.048-.128-.05-.125-.054-.099-.043-.098-.044-.096-.044-.097-.046-.097-.046-.097-.048-.189-.095-.188-.098-.188-.1-.186-.103-.184-.104-.182-.105-.183-.108-.18-.107-.18-.109-.357-.218-.355-.217-.353-.217-.176-.107-.177-.106-.176-.105-.176-.104-.175-.1-.177-.1-.176-.097-.177-.095-.179-.093-.088-.045-.087-.043-.09-.044-.089-.043-.088-.041-.091-.041-.092-.042-.087-.039-.09-.037-.095-.04-.039-.018-.038-.022-.035-.025-.034-.028-.03-.031-.028-.034-.025-.036-.022-.037-.018-.04-.015-.04-.011-.043-.008-.043-.004-.044v-.043l.005-.044.007-.043.012-.042.015-.04.018-.04.022-.038.025-.035.028-.034.031-.03.034-.029.036-.024.037-.022.04-.019.041-.014.042-.012.043-.007.044-.004z" /><path fill="#B0B0B0" d="M26.76 8.174l.04.005.038.007.038.01.037.014.036.016.034.019.033.021.03.025.03.026.027.029.024.03.022.033.02.034.016.036.014.036.011.038.008.038.005.04.002.039-.002.039-.004.039-.008.038-.01.038-.013.037-.016.036-.02.034-.021.033-.024.031-.027.03-.028.026-.248.215-.25.214-.25.214-.251.213-.504.426-.505.424-.505.425-.505.425-.503.427-.25.214-.25.214-.248.215-.248.217-.246.217-.245.217-.244.219-.241.22-.24.22-.24.223-.236.224-.234.225-.232.226-.23.228-.114.115-.114.116-.112.114-.112.117-.112.117-.11.116-.11.118-.111.12-.028.027-.03.026-.032.023-.033.02-.035.018-.036.015-.038.012-.038.009-.039.006-.039.003h-.04l-.038-.003-.039-.006-.038-.01-.037-.012-.037-.015-.035-.018-.033-.02-.032-.024-.03-.025-.027-.028-.026-.03-.023-.032-.02-.033-.018-.035-.015-.037-.012-.037-.01-.038-.005-.039-.003-.039v-.04l.003-.038.006-.04.01-.037.012-.038.015-.036.018-.035.02-.033.023-.032.026-.03.112-.12.113-.122.115-.12.114-.12.116-.12.117-.12.116-.118.117-.118.236-.235.239-.232.24-.23.241-.229.244-.227.245-.225.246-.224.248-.223.249-.22.25-.22.25-.22.251-.217.252-.217.253-.215.505-.43.507-.426.505-.425.504-.424.502-.424.25-.211.248-.213.247-.212.246-.213.031-.025.033-.022.034-.02.035-.016.037-.014.038-.01.038-.008.04-.005.038-.002zM12.313 17.831l.027.002.026.003.027.004.025.006.026.007.025.008.025.01.024.011.024.013.023.014.022.014.021.016.02.017.02.019.018.019.018.02.016.021.015.022.014.022.013.024.012.024.01.024.009.026.007.025.006.026.005.026.003.027.002.026.001.027v.026l-.003.027-.004.026-.005.026-.006.026-.008.026-.01.025-.01.024-.012.024-.013.023-.014.023-.015.021-.017.021-.018.02-.018.02-.02.017-.05.043-.047.043-.05.046-.049.045-.097.095-.096.096-.095.099-.094.1-.093.103-.093.107-.091.107-.091.11-.09.11-.09.112-.09.114-.088.116-.089.116-.088.118-.176.239-.176.24-.177.242-.177.242-.179.241-.09.121-.092.12-.093.118-.092.118-.095.118-.094.114-.017.02-.019.02-.02.017-.02.017-.02.016-.023.015-.023.014-.024.012-.024.011-.024.01-.026.008-.025.007-.026.006-.027.004-.026.003-.027.002h-.026l-.027-.001-.026-.003-.027-.004-.026-.006-.025-.007-.026-.008-.024-.01-.025-.01-.024-.013-.022-.013-.023-.015-.021-.016-.02-.017-.02-.018-.019-.019-.018-.02-.016-.02-.015-.022-.015-.023-.012-.023-.012-.024-.01-.024-.01-.025-.008-.026-.006-.026-.005-.026-.004-.026-.002-.027v-.053l.002-.026.003-.027.005-.026.007-.026.007-.025.01-.025.01-.025.01-.024.014-.023.014-.023.015-.022.016-.02.09-.11.088-.109.088-.112.087-.112.087-.114.087-.116.175-.235.175-.239.176-.242.178-.243.18-.243.092-.123.092-.121.094-.121.094-.121.096-.12.097-.12.098-.118.1-.116.1-.116.105-.115.104-.113.108-.111.108-.109.11-.107.058-.053.055-.051.06-.054.058-.05.02-.017.022-.016.022-.015.023-.013.024-.012.024-.01.025-.01.025-.009.026-.007.026-.005.027-.004.026-.003.027-.001zM25.138 15.987l.025.002.025.002.024.004.025.005.024.007.024.007.023.009.023.01.022.01.022.013.402.236.401.237.402.239.201.121.2.122.2.123.2.124.2.125.199.127.198.128.198.13.197.132.193.132.02.015.02.015.019.017.018.017.017.018.016.02.015.02.014.02.013.021.012.022.01.023.01.023.009.023.007.024.006.024.005.024.004.025.002.025.002.025v.025l-.002.025-.002.024-.004.025-.005.024-.006.025-.007.023-.009.024-.01.023-.01.022-.012.022-.013.022-.014.02-.015.02-.016.02-.017.017-.018.018-.018.016-.02.016-.02.014-.021.014-.022.012-.022.012-.023.01-.023.01-.023.007-.024.007-.025.006-.024.004-.025.003-.025.002h-.05l-.025-.002-.024-.003-.025-.004-.024-.006-.024-.007-.024-.008-.023-.009-.023-.01-.022-.011-.022-.013-.02-.013-.192-.13-.19-.128-.19-.125-.192-.125-.194-.122-.194-.123-.196-.121-.196-.12-.197-.12-.197-.12-.398-.236-.399-.236-.4-.235-.021-.013-.02-.014-.02-.015-.02-.016-.018-.017-.017-.018-.016-.02-.016-.019-.014-.02-.014-.021-.012-.022-.011-.022-.01-.023-.009-.023-.008-.024-.006-.024-.006-.024-.004-.025-.003-.025-.002-.025v-.049l.003-.025.003-.025.005-.024.005-.025.007-.024.008-.023.01-.023.01-.023.012-.022.012-.022.014-.02.015-.02.015-.02.017-.019.017-.017.019-.017.019-.016.02-.015.02-.014.022-.013.022-.011.023-.011.023-.01.023-.008.024-.007.024-.006.025-.005.024-.003.025-.003h.025z" /><path fill="#FF5F00" d="M3.949 11.723l.018.002.018.001.018.003.018.003.017.004.018.004.017.005.017.006.017.006.017.007.016.007.016.008.016.01.016.008.015.01.015.01.014.011.014.012.014.011.013.013.013.012.012.014.012.013.011.014.011.015.01.015.01.015.009.016.009.016.008.016.007.016.007.017.006.017.006.017.005.017.004.018.003.018.004.017.002.018.002.018v.018l.001.018v.036l-.002.018-.002.018-.003.018-.004.018-.004.017-.004.018-.006.017-.006.017-.006.017-.007.017-.008.016-.009.016-.008.016-.01.015-.01.015-.01.015-.012.014-.011.014-.012.013-.013.013-.013.013-.013.012-.014.011-.015.011-.014.01-.015.01-.016.01-.015.009-.016.008-.017.008-.016.007-.017.007-.017.005-.018.006-.017.004-.018.004-.204.043-.203.044-.206.046-.21.047-.21.044-.108.022-.108.022-.11.02-.11.019-.108.017-.106.016-.018.003-.018.002H2.29l-.018.001h-.036l-.018-.002-.018-.003-.018-.002-.017-.004-.018-.004-.017-.005-.018-.005-.017-.006-.016-.006-.017-.008-.016-.007-.016-.009-.016-.009-.015-.009-.015-.01-.015-.01-.014-.012-.014-.011-.014-.012-.012-.013-.013-.013-.012-.013-.012-.014-.01-.015-.011-.014-.01-.015-.01-.016-.008-.015-.009-.016-.007-.017-.007-.016-.007-.017-.006-.017-.005-.018-.005-.017-.004-.018-.003-.017-.003-.018-.002-.018-.001-.018-.001-.018v-.036l.001-.018.002-.018.003-.018.003-.018.004-.018.004-.017.005-.017.006-.018.006-.017.007-.016.007-.017.008-.016.009-.016.009-.015.01-.015.01-.015.01-.015.012-.014.012-.013.012-.014.013-.012.013-.013.014-.011.014-.012.015-.01.014-.01.016-.01.015-.01.016-.008.016-.008.017-.007.017-.007.017-.006.017-.006.017-.005.018-.004.017-.004.018-.003.103-.016.099-.016.098-.016.097-.018.1-.02.1-.02.203-.044.204-.045.207-.046.21-.046.21-.044.017-.003.018-.003.018-.002.018-.001h.018l.018-.001z" /><path fill="#59A51E" d="M4.855 16.438h.023l.023.003.023.004.022.004.023.005.022.007.022.008.021.008.021.01.02.01.021.011.02.013.018.013.019.014.017.015.017.016.016.016.016.017.015.018.013.019.013.019.012.02.011.02.01.02.01.022.008.021.007.022.006.023.005.022.004.023.003.023.002.023.001.023v.023l-.001.023-.003.023-.003.023-.005.023-.005.022-.006.022-.008.022-.009.022-.01.02-.01.021-.01.02-.013.02-.014.019-.013.018-.015.018-.016.017-.017.016-.017.015-.018.015-.018.014-.02.013-.02.012-.02.01-.02.01-.021.01-.022.008-.022.007-.086.026-.093.027-.093.024-.092.022-.09.021-.092.02-.092.019-.091.017-.177.033-.178.03-.347.056-.17.03-.17.03-.083.014-.08.015-.079.016-.078.017-.079.019-.078.019-.077.02-.077.02-.073.022-.073.023-.07.023-.072.027-.021.008-.022.007-.023.005-.022.005-.023.003-.023.003-.023.001H2.09l-.024-.002-.022-.003-.023-.004-.023-.005-.022-.006-.022-.007-.022-.008-.021-.01-.02-.01-.021-.01-.02-.012-.02-.013-.018-.014-.018-.014-.017-.016-.016-.016-.016-.017-.015-.017-.014-.018-.014-.02-.012-.019-.012-.02-.01-.02-.01-.021-.008-.022-.008-.022-.007-.022-.005-.022-.005-.023-.003-.023-.003-.023-.001-.023v-.046l.002-.023.003-.023.004-.023.005-.022.006-.022.007-.022.008-.022.01-.021.01-.021.01-.02.012-.02.013-.02.014-.018.014-.018.016-.017.016-.017.016-.016.018-.015.018-.014.02-.013.019-.012.02-.012.02-.01.021-.01.022-.009.09-.034.094-.03.092-.03.092-.027.09-.024.091-.024.09-.022.092-.021.091-.02.092-.019.092-.017.09-.016.174-.031.176-.03.347-.057.168-.028.168-.03.08-.016.08-.016.079-.018.078-.018.078-.019.074-.019.075-.021.08-.024.022-.007.023-.005.023-.004.023-.003.023-.002h.023z" /><path fill="#013579" d="M5.638 21.101l.031.003.031.004.031.007.03.008.03.01.029.012.028.014.027.016.027.017.025.02.024.02.022.021.021.024.02.024.018.026.016.027.015.028.013.028.01.03.01.03.007.03.005.031.004.032.001.031v.031l-.003.032-.005.03-.006.031-.009.03-.01.03-.012.03-.014.028-.015.027-.018.026-.019.025-.02.024-.022.022-.023.022-.025.02-.026.017-.026.016-.028.015-.029.013-.03.011-.03.01-.03.006-.03.006-.032.003-.031.001-.076.001-.072.002-.073.003-.073.004-.15.01-.152.012-.152.015-.152.017-.154.02-.153.021-.154.025-.157.026-.155.027-.157.03-.158.031-.157.032-.159.034-.158.034-.159.037-.159.036-.32.075-.64.153-.322.077-.32.073-.16.035-.16.036-.161.033-.158.032-.03.006-.032.003-.031.001H.474l-.03-.003-.032-.005-.03-.006-.031-.008-.03-.01-.029-.013-.028-.014-.027-.015-.026-.018-.025-.019-.024-.02-.022-.022-.022-.024-.02-.024-.017-.026-.016-.027-.015-.028-.013-.028-.01-.03-.01-.03-.007-.03-.005-.031L0 22.578 0 22.548v-.032l.003-.032.005-.03.006-.031.009-.03.01-.03.012-.03.014-.027.016-.028.017-.026.019-.025.02-.024.022-.022.024-.021.024-.02.026-.018.027-.016.028-.015.028-.012.03-.011.03-.01.03-.007.155-.031.152-.032.155-.034.156-.035.313-.071.317-.075.642-.154.324-.076.163-.037.165-.038.328-.07.166-.034.164-.033.166-.031.167-.03.165-.027.167-.027.169-.023.166-.021.168-.02.167-.016.167-.014.166-.01.086-.005.085-.003.086-.002.081-.002z" /></g></symbol><symbol viewBox="0 0 32 32" id="color-sick"><g fill="#59A51E" fill-rule="evenodd"><path d="M12.442.303l.134.016.132.026.13.037.126.047.122.056.117.066.112.075.106.083.099.092.09.098.084.106.075.112.066.118.056.122.046.126.037.13.026.132.016.134.005.134v.422l-.001.212-.001.211-.001.212-.002.212-.001.211-.002.212-.002.211-.002.212-.003.212-.002.211-.003.212-.004.212-.003.211-.004.212-.007.423-.01.424-.009.423-.01.424-.01.423-.013.423-.012.424-.014.423-.014.423-.014.424-.016.423-.016.423-.017.424-.017.423-.018.423-.019.423-.019.423-.02.423-.02.423-.02.423-.022.423-.021.423-.022.423-.023.422-.023.423-.024.422-.023.422-.025.423-.024.422-.025.422-.025.422-.026.422-.026.421-.026.422-.026.421-.027.422-.027.421-.027.421-.055.842-.055.84-.055.841-.056.84-.057.84-.112 1.675-.056.837-.056.836-.014.134-.024.132-.035.13-.045.127-.055.123-.065.118-.073.113-.082.107-.09.1-.098.092-.105.085-.11.076-.117.067-.122.058-.125.048-.13.038-.131.028-.134.018-.134.007-.135-.004-.134-.014-.132-.025-.13-.035-.127-.045-.123-.055-.118-.064-.113-.074-.106-.082-.1-.09-.093-.097-.085-.105-.076-.111-.067-.117-.058-.121-.048-.126-.038-.13-.028-.13-.017-.134-.007-.135.003-.134.056-.837.056-.838.112-1.676.057-.839.056-.838.055-.839.055-.839.055-.839.027-.419.026-.42.027-.419.026-.42.026-.419.026-.419.025-.42.025-.419.025-.419.025-.42.024-.418.023-.42.024-.419.022-.419.023-.419.022-.419.021-.419.021-.419.02-.418.02-.42.02-.418.02-.418.018-.419.017-.418.017-.418.017-.418.016-.418.015-.418.015-.418.013-.418.014-.417.012-.418.012-.417.01-.417.01-.417.01-.417.009-.416.007-.417.004-.208.003-.208.003-.208.003-.209.003-.208.002-.207.003-.208.002-.208.001-.208.002-.208.001-.208.001-.207.001-.208v-.208l.001-.207V2.01l.006-.134.016-.134.026-.132.037-.13.046-.126.057-.122.065-.118.075-.111.084-.106.091-.099.099-.091.106-.083.112-.075.117-.066.123-.056.126-.047.13-.036.131-.026.134-.016.135-.005z" /><path d="M14.294.01l.136.021.135.032.131.043.128.053.122.062.118.073.11.082.105.09.097.1.088.105.08.113.07.12.06.123.05.129.04.132.029.135.018.137.007.138-.005.138-.03.437-.031.436-.03.437-.03.437-.03.436-.029.437-.028.437-.028.437-.028.437-.028.437-.027.438-.027.437-.027.438-.027.437-.026.438-.026.438-.052.876-.051.876-.05.877-.051.876-.1 1.755-.05.877-.05.878-.051.878-.051.879-.052.878-.052.879-.027.44-.026.439-.027.44-.028.439-.027.44-.028.439-.028.44-.029.439-.029.44-.029.44-.03.439-.03.44-.03.44-.03.44-.032.439-.032.44-.032.44-.033.44-.034.439-.034.44-.034.44-.035.44-.036.44-.036.438-.017.137-.028.135-.038.132-.05.13-.059.124-.07.12-.078.113-.087.107-.096.1-.104.09-.11.083-.117.074-.122.064-.127.054-.131.043-.134.033-.137.022-.137.01h-.138l-.138-.01-.136-.023-.134-.033-.131-.044-.127-.055-.122-.064-.117-.074-.11-.083-.103-.092-.096-.1-.087-.107-.078-.114-.069-.12-.059-.124-.048-.13-.039-.132-.027-.135-.016-.137-.006-.138.006-.138.036-.436.035-.435.035-.436.034-.435.034-.436.033-.435.032-.436.032-.436.032-.436.031-.436.03-.436.031-.437.03-.436.03-.437.028-.436.029-.437.028-.437.028-.437.028-.437.027-.438.028-.437.026-.437.027-.438.026-.438.053-.875.051-.876.051-.876.05-.877.05-.877.05-.877.1-1.755.051-.878.05-.879.052-.878.052-.879.026-.44.027-.439.026-.44.027-.439.028-.44.027-.439.028-.44.028-.439.028-.44.03-.44.029-.44.03-.439.029-.44.03-.44.031-.44.031-.438.016-.138.026-.135.037-.133.048-.13.058-.125.068-.12.077-.115.087-.107.094-.1.103-.093.11-.084.115-.075.122-.065.126-.056.13-.045.135-.034.136-.023.137-.013.138-.001z" /><path d="M16.967.001l.138.012.136.022.134.034.13.044.128.054.122.064.116.074.11.083.104.092.095.1.087.107.078.114.07.12.058.124.049.13.038.132.027.136.017.136.005.138-.006.138-.036.437-.035.435-.035.436-.034.435-.034.436-.033.436-.033.436-.032.437-.032.436-.031.437-.031.437-.03.437-.031.437-.03.437-.03.438-.029.437-.03.438-.028.438-.028.438-.029.438-.056.876-.056.877-.055.878-.055.877-.11 1.757-.056.879-.056.879-.057.879-.028.44-.03.44-.028.439-.03.44-.03.44-.03.44-.03.44-.03.44-.032.44-.031.44-.032.44-.033.44-.033.44-.033.44-.034.44-.035.44-.035.44-.035.44-.037.44-.036.44-.038.439-.038.44-.04.44-.039.44-.04.44-.041.437-.018.137-.03.135-.04.132-.05.129-.061.124-.07.118-.08.113-.09.106-.096.098-.105.09-.111.082-.118.072-.123.063-.127.052-.132.042-.134.032-.137.02-.138.01-.138-.002-.137-.013-.136-.024-.134-.035-.13-.045-.126-.056-.122-.066-.116-.075-.109-.084-.102-.093-.094-.1-.086-.109-.077-.115-.068-.12-.057-.125-.048-.13-.036-.133-.026-.136-.015-.137-.004-.138.007-.138.041-.435.04-.434.039-.434.038-.435.038-.434.037-.435.037-.435.036-.435.035-.435.034-.436.035-.435.033-.436.033-.436.033-.437.032-.436.032-.437.031-.436.031-.437.03-.437.03-.437.03-.438.03-.437.03-.438.029-.438.028-.437.029-.438.056-.877.056-.877.056-.877.11-1.755.055-.879.055-.878.056-.88.057-.878.028-.44.029-.44.029-.44.029-.439.03-.44.03-.44.03-.44.03-.44.03-.44.032-.44.031-.44.033-.44.032-.44.033-.44.034-.44.034-.44.034-.44.035-.44.036-.44.036-.438.017-.137.028-.135.039-.133.049-.129.06-.124.069-.12.078-.113.088-.107.096-.1.103-.09.11-.083.117-.074.123-.064.127-.054.13-.043.135-.033.136-.022.138-.01z" /><path d="M19.94.305l.136.018.135.03.133.04.128.05.124.06.119.07.113.08.105.089.099.097.09.104.082.112.072.117.063.123.053.128.042.131.031.135.021.136.01.138-.002.138-.013.137-.028.216-.028.214-.028.214-.027.214-.027.214-.026.215-.026.214-.025.215-.025.215-.025.215-.024.215-.024.216-.024.215-.023.216-.023.216-.022.216-.022.216-.022.216-.022.217-.02.216-.022.217-.02.217-.02.217-.02.217-.02.217-.02.218-.019.217-.019.218-.019.217-.018.218-.018.218-.018.218-.018.219-.018.218-.034.437-.034.437-.033.438-.033.438-.032.439-.032.439-.031.44-.03.439-.031.44-.061.88-.06.882-.06.883-.031.442-.03.442-.032.442-.031.442-.032.442-.032.443-.033.442-.033.443-.035.443-.034.443-.036.442-.018.222-.019.222-.018.221-.02.222-.019.22-.019.222-.02.222-.02.221-.02.222-.02.221-.021.222-.021.221-.022.222-.022.221-.022.221-.022.222-.023.221-.023.222-.024.22-.024.222-.024.222-.025.22-.025.222-.026.221-.026.221-.026.221-.027.221-.028.221-.027.221-.029.221-.028.221-.03.22-.03.222-.03.22-.03.221-.031.22-.032.221-.032.22-.033.221-.033.22-.034.22-.034.219-.027.135-.038.133-.048.13-.058.124-.069.12-.077.114-.087.108-.095.1-.103.092-.11.084-.116.074-.122.065-.127.055-.13.044-.134.034-.136.023-.138.012h-.138l-.138-.01-.136-.02-.134-.033-.131-.043-.128-.053-.122-.064-.117-.073-.111-.082-.104-.091-.096-.1-.088-.106-.08-.113-.07-.119-.06-.124-.049-.129-.039-.132-.028-.135-.018-.137-.006-.138.005-.138.015-.137.034-.214.032-.212.032-.212.032-.212.031-.212.03-.212.03-.213.03-.213.03-.213.028-.213.028-.214.028-.213.027-.214.027-.214.027-.214.026-.214.025-.214.026-.215.024-.215.025-.215.024-.215.024-.215.023-.215.023-.216.023-.216.022-.216.022-.216.021-.216.022-.216.02-.217.022-.216.02-.217.02-.217.02-.217.02-.217.019-.217.019-.217.019-.218.018-.218.019-.217.018-.218.018-.218.035-.437.034-.437.034-.437.033-.438.032-.438.032-.438.032-.439.031-.44.03-.439.031-.44.03-.44.061-.881.06-.883.061-.883.03-.442.032-.442.031-.443.032-.442.033-.443.033-.443.033-.443.035-.443.035-.443.018-.222.018-.221.018-.222.019-.221.018-.222.02-.222.019-.221.02-.222.019-.222.02-.221.02-.222.021-.222.021-.221.022-.222.021-.221.022-.222.023-.222.022-.221.023-.222.024-.221.024-.222.024-.221.024-.222.025-.221.026-.222.026-.221.026-.222.026-.22.028-.222.027-.221.028-.222.029-.221.029-.221.029-.219.023-.136.035-.134.045-.13.056-.127.065-.121.075-.116.085-.11.092-.102.101-.094.108-.086.115-.077.12-.068.125-.058.13-.047.133-.037.136-.026.137-.015.138-.004z" /><path d="M2.224 17.132h.211l.212.001.211.001.212.001.212.002.211.001.212.002.211.002.212.002.212.003.211.002.212.003.212.004.211.003.212.004.423.007.424.01.423.009.424.01.423.011.423.012.424.012.423.014.423.014.424.015.423.015.423.016.424.017.423.017.423.018.423.019.423.019.423.02.423.02.423.02.423.022.423.021.423.022.422.023.423.023.422.024.422.023.423.025.422.024.422.025.422.025.422.026.421.026.422.026.421.026.422.027.421.027.421.027.842.055.84.055.841.055.84.057.84.056 1.675.112.837.056.836.056.134.014.132.024.13.035.127.045.123.055.118.065.113.073.107.082.1.09.092.098.085.105.076.11.067.117.058.122.048.125.038.13.028.131.018.134.006.134-.003.135-.014.134-.025.132-.035.13-.045.127-.055.123-.064.118-.073.113-.082.106-.09.1-.098.093-.105.085-.111.076-.117.067-.121.058-.126.048-.129.038-.132.028-.133.017-.135.007-.134-.003-.837-.056-.838-.056-1.676-.112-.839-.057-.838-.056-.839-.055-.839-.055-.839-.055-.419-.027-.42-.026-.419-.027-.42-.026-.419-.026-.419-.026-.42-.025-.419-.025-.419-.025-.42-.025-.418-.024-.42-.023-.419-.024-.419-.022-.419-.023-.419-.022-.419-.021-.419-.021-.418-.02-.42-.02-.418-.02-.418-.02-.419-.018-.418-.017-.418-.017-.418-.017-.418-.016-.418-.015-.418-.015-.418-.013-.417-.014-.418-.012-.417-.012-.417-.01-.417-.01-.417-.01-.416-.009-.417-.007-.208-.004-.208-.003-.208-.003-.209-.003-.208-.003-.207-.002-.209-.003-.207-.002-.208-.001-.208-.002-.208-.001-.207-.001-.208-.001h-.208l-.207-.001H2.01l-.134-.006-.134-.016-.132-.026-.13-.037-.126-.046-.122-.057-.117-.065-.112-.075-.106-.084-.099-.091-.091-.099-.083-.106-.075-.112-.066-.117-.056-.123-.047-.126-.036-.13-.026-.131-.016-.134-.005-.135.005-.134.016-.134.026-.132.037-.13.047-.126.056-.122.066-.117.075-.112.083-.106.092-.098.099-.092.105-.083.112-.075.118-.065.122-.057.126-.046.13-.037.132-.026.134-.016.134-.005z" /><path d="M1.836 15.34l.437.03.437.031.436.03.437.03.436.03.437.029.437.028.437.028.437.028.437.028.438.027.437.028.438.026.437.027.438.026.438.026.876.052.876.051.877.051.876.05 1.755.1.877.05.878.05.878.051.879.051.878.052.879.052.44.027.439.026.44.027.439.028.44.027.439.028.44.028.439.029.44.029.44.029.44.03.439.03.44.03.44.03.439.032.44.032.44.032.44.033.439.034.44.034.44.034.44.035.44.036.438.036.137.017.135.028.133.038.128.05.125.059.12.07.113.078.107.087.1.096.09.104.083.11.074.117.064.122.054.127.043.131.033.134.022.137.01.137v.138l-.01.138-.023.136-.033.134-.044.131-.055.127-.064.122-.074.117-.083.11-.092.103-.1.096-.107.087-.114.078-.12.069-.124.059-.13.048-.132.039-.135.027-.137.016-.138.006-.138-.006-.436-.036-.435-.035-.436-.035-.435-.034-.436-.034-.435-.033-.436-.032-.436-.032-.436-.032-.436-.031-.436-.03-.437-.031-.436-.03-.437-.03-.436-.028-.437-.029-.437-.028-.437-.028-.437-.028-.438-.027-.437-.028-.438-.026-.437-.027-.438-.026-.875-.053-.876-.051-.877-.051-.876-.05-.877-.05-.877-.05-1.755-.1-.878-.051-.879-.05-.878-.052-.879-.052-.44-.026-.439-.027-.44-.026-.439-.027-.44-.028-.439-.027-.44-.028-.44-.028-.439-.028-.44-.03-.44-.028-.439-.03-.44-.03-.44-.03-.44-.031-.438-.031-.137-.016-.136-.026-.133-.037-.13-.048-.125-.058-.12-.068-.114-.077-.108-.086-.1-.095-.093-.102-.084-.11-.075-.116-.065-.122-.056-.126-.045-.13-.034-.134-.023-.136-.013-.138-.001-.138.01-.138.02-.136.032-.134.043-.132.053-.127.062-.123.073-.118.082-.11.09-.105.1-.097.105-.088.113-.08.12-.07.123-.06.129-.05.132-.04.135-.029.137-.018.138-.007z" /><path d="M1.856 12.55l.436.036.435.035.436.035.435.034.436.034.436.033.436.033.437.032.436.032.437.031.437.031.437.03.437.031.437.03.438.03.437.029.438.03.438.028.438.029.438.028.876.056.877.056.878.055.877.055 1.757.11.879.056.879.056.879.057.44.028.44.03.439.028.44.03.44.03.44.03.44.03.44.03.44.032.44.031.44.032.44.033.44.033.44.033.44.034.44.035.44.035.44.035.44.037.439.036.44.038.44.038.44.04.44.039.44.04.437.041.137.018.135.03.132.04.129.05.124.061.118.07.113.08.106.09.098.096.09.105.082.111.072.118.063.123.052.127.042.132.032.134.02.137.01.138-.002.138-.013.137-.024.136-.035.134-.045.13-.056.126-.066.122-.075.116-.084.109-.093.102-.1.094-.109.086-.114.077-.121.068-.125.057-.13.048-.133.036-.136.026-.137.015-.138.004-.138-.007-.435-.041-.434-.04-.434-.039-.435-.038-.434-.038-.435-.037-.435-.037-.435-.036-.435-.035-.436-.034-.435-.035-.436-.033-.436-.033-.437-.033-.436-.032-.437-.032-.436-.031-.437-.031-.437-.03-.437-.03-.438-.03-.437-.03-.438-.03-.438-.029-.437-.028-.438-.029-.877-.056-.877-.056-.877-.056-1.755-.11-.879-.055-.878-.055-.88-.056-.878-.057-.44-.028-.44-.029-.44-.029-.44-.029-.439-.03-.44-.03-.44-.03-.44-.03-.44-.03-.44-.032-.44-.031-.44-.032-.44-.033-.44-.033-.44-.034-.44-.034-.44-.034-.44-.035-.44-.036-.438-.036-.137-.017-.135-.028-.133-.039-.129-.049-.124-.06-.12-.069-.113-.078-.107-.088-.1-.096-.09-.103-.083-.11-.074-.117-.064-.123-.054-.127-.043-.13-.033-.135-.022-.136-.01-.138v-.138l.01-.138.023-.136.034-.134.044-.13.054-.128.064-.122.074-.116.083-.11.092-.104.1-.095.107-.087.114-.078.12-.07.124-.058.13-.049.132-.038.136-.027.137-.017.138-.005z" /><path d="M2.1 9.659l.138.013.216.028.214.028.214.028.214.027.214.027.214.026.215.026.215.025.215.025.215.025.215.024.216.024.215.024.216.023.216.023.216.022.216.022.216.022.217.022.216.02.217.022.217.02.217.02.217.02.217.02.218.02.217.019.218.019.217.019.218.018.218.018.218.018.219.018.218.018.437.034.437.034.438.033.438.033.439.032.439.032.44.031.439.03.44.031.88.061.882.06.883.06.442.031.442.03.442.032.442.031.442.032.443.032.442.033.443.033.443.035.443.034.442.036.222.018.221.019.222.018.222.02.221.019.221.019.222.02.222.02.22.02.222.02.222.021.221.021.222.022.221.022.222.022.22.022.222.023.222.023.22.024.222.024.221.024.222.025.22.025.222.026.221.026.221.026.221.027.221.028.221.027.221.029.22.028.222.03.22.03.221.03.221.03.22.031.221.032.22.032.221.033.22.033.22.034.219.034.135.027.133.038.13.048.124.058.12.069.115.078.107.086.1.095.092.103.084.11.074.116.065.122.055.127.044.13.034.134.023.137.012.137v.138l-.01.138-.02.136-.033.134-.043.132-.054.127-.063.123-.073.117-.082.11-.091.104-.1.097-.106.087-.113.08-.119.07-.124.06-.13.049-.131.04-.136.027-.137.018-.137.006-.138-.004-.138-.016-.213-.034-.212-.032-.212-.032-.212-.032-.212-.031-.212-.03-.213-.03-.213-.03-.213-.03-.213-.028-.213-.028-.214-.028-.214-.027-.214-.027-.214-.027-.214-.026-.214-.025-.215-.026-.215-.024-.215-.025-.215-.024-.215-.024-.215-.023-.216-.023-.216-.023-.216-.022-.216-.022-.216-.021-.216-.022-.216-.02-.217-.021-.217-.02-.217-.021-.217-.02-.217-.02-.217-.019-.217-.019-.218-.019-.218-.018-.217-.019-.218-.018-.218-.018-.437-.035-.437-.034-.437-.034-.437-.033-.439-.032-.438-.032-.439-.032-.44-.031-.439-.03-.44-.031-.44-.03-.882-.061-.882-.06-.883-.061-.442-.03-.443-.032-.442-.031-.442-.032-.443-.033-.443-.033-.443-.033-.443-.035-.443-.035-.222-.018-.221-.018-.222-.018-.221-.019-.222-.018-.222-.02-.221-.019-.222-.02-.222-.019-.221-.02-.222-.02-.222-.021-.221-.021-.222-.022-.222-.021-.221-.022-.222-.023-.221-.022-.222-.023-.221-.024-.222-.024-.222-.024-.22-.024-.222-.025-.222-.026-.221-.026-.222-.026-.22-.026-.222-.027-.222-.028-.22-.028-.222-.029-.221-.029-.22-.029-.135-.023-.134-.035-.13-.045-.127-.056-.121-.065-.116-.075-.11-.085-.102-.092-.094-.101-.086-.108-.077-.114-.068-.12-.058-.126-.047-.13-.037-.133-.026-.135-.015-.138-.004-.138.007-.138.018-.136.03-.135.04-.132.05-.129.06-.124.07-.119.08-.113.09-.105.096-.099.104-.09.112-.082.117-.072.123-.063.128-.053.131-.042.135-.031.136-.021.138-.01z" /></g></symbol><symbol viewBox="0 0 24 24" id="doctor"><path d="M15.458 13.644a6.09 6.09 0 0 1-5.089-6.007v-5.41h3.183v2h-1.183v3.41a4.09 4.09 0 0 0 8.179 0v-3.41h-1.206v-2h3.206v5.41a6.09 6.09 0 0 1-5.09 6.007v2.22a6.09 6.09 0 0 1-6.089 6.09v-2l.001 2-.001-2a4.09 4.09 0 0 0 4.09-4.09v-2.22zm-4.088 8.31h-.34c-2.031 0-3.812-1.373-4.658-3.44a1 1 0 1 1 1.851-.758c.556 1.359 1.644 2.198 2.807 2.198h.34v2zm-6.656-5.525a3.714 3.714 0 1 1 0-7.429 3.714 3.714 0 0 1 0 7.429zm0-2a1.714 1.714 0 1 0 0-3.429 1.714 1.714 0 0 0 0 3.429zm-.035-1.072a.679.679 0 1 1 0-1.357.679.679 0 0 1 0 1.357z" fill="currentColor" fill-rule="nonzero" /></symbol><symbol viewBox="0 0 24 24" id="download"><defs><path d="M11 13.586V2a1 1 0 0 1 2 0v11.586l2.293-2.293a1 1 0 0 1 1.414 1.414l-4 4a1 1 0 0 1-1.414 0l-4-4a1 1 0 0 1 1.414-1.414L11 13.586zM2 17a1 1 0 0 1 2 0v3a1 1 0 0 0 1 1h14a1 1 0 0 0 1-1v-3a1 1 0 0 1 2 0v3a3 3 0 0 1-3 3H5a3 3 0 0 1-3-3v-3z" id="download_a" /></defs><use fill="currentColor" fill-rule="nonzero" xlink:href="#download_a" /></symbol><symbol viewBox="0 0 24 24" id="drop-down"><defs><path id="drop-down_a" d="M12 14l-4-4h8z" /></defs><use fill="currentColor" xlink:href="#drop-down_a" fill-rule="evenodd" /></symbol><symbol viewBox="0 0 24 24" id="drop-up"><defs><path id="drop-up_a" d="M12 10l4 4H8z" /></defs><use fill="currentColor" xlink:href="#drop-up_a" fill-rule="evenodd" /></symbol><symbol viewBox="0 0 24 24" id="erase"><defs><path d="M16.414 12l2.293 2.293a1 1 0 0 1-1.414 1.414L15 13.414l-2.293 2.293a1 1 0 0 1-1.414-1.414L13.586 12l-2.293-2.293a1 1 0 1 1 1.414-1.414L15 10.586l2.293-2.293a1 1 0 0 1 1.414 1.414L16.414 12zM21 3a3 3 0 0 1 3 3v12a3 3 0 0 1-3 3H8a1 1 0 0 1-.753-.341l-7-8a1 1 0 0 1 0-1.318l7-8A1 1 0 0 1 8 3h13zM8.454 19H21a1 1 0 0 0 1-1V6a1 1 0 0 0-1-1H8.454l-6.125 7 6.125 7z" id="erase_a" /></defs><use fill="currentColor" fill-rule="nonzero" xlink:href="#erase_a" /></symbol><symbol viewBox="0 0 24 24" id="file"><defs><path d="M14 1a1 1 0 0 1 .707.293l6 6A1 1 0 0 1 21 8v12a3 3 0 0 1-3 3H6a3 3 0 0 1-3-3V4a3 3 0 0 1 3-3h8zm-.414 2H6a1 1 0 0 0-1 1v16a1 1 0 0 0 1 1h12a1 1 0 0 0 1-1V8.414L13.586 3zM16 12a1 1 0 0 1 0 2H8a1 1 0 0 1 0-2h8zm0 4a1 1 0 0 1 0 2H8a1 1 0 0 1 0-2h8zm-6-8a1 1 0 0 1 0 2H8a1 1 0 1 1 0-2h2zm5-1h5a1 1 0 0 1 0 2h-6a1 1 0 0 1-1-1V2a1 1 0 0 1 2 0v5z" id="file_a" /></defs><use fill="currentColor" fill-rule="nonzero" xlink:href="#file_a" /></symbol><symbol viewBox="0 0 24 24" id="info"><defs><path d="M12 23C5.925 23 1 18.075 1 12S5.925 1 12 1s11 4.925 11 11-4.925 11-11 11zm0-2a9 9 0 1 0 0-18 9 9 0 0 0 0 18zm1-5a1 1 0 0 1-2 0v-4a1 1 0 0 1 2 0v4zm-1-6a1 1 0 1 1 0-2 1 1 0 0 1 0 2z" id="info_a" /></defs><use fill="currentColor" fill-rule="nonzero" xlink:href="#info_a" /></symbol><symbol fill="none" viewBox="0 0 24 24" id="log-out"><path fill-rule="evenodd" clip-rule="evenodd" d="M5 3a1 1 0 0 0-1 1v16a1 1 0 0 0 1 1h5a1 1 0 1 1 0 2H5a3 3 0 0 1-3-3V4a3 3 0 0 1 3-3h5a1 1 0 1 1 0 2H5zm3 9c0-.552.416-1 .929-1h9.657l-2.293-2.293a1 1 0 0 1 1.414-1.414l4 4a1 1 0 0 1 0 1.414l-4 4a1 1 0 0 1-1.414-1.414L18.586 13H8.929C8.416 13 8 12.552 8 12z" fill="currentColor" /></symbol><symbol viewBox="0 0 24 24" id="menu-right"><defs><path d="M8 13a1 1 0 0 1 0-2h12a1 1 0 0 1 0 2H8zm-4 6a1 1 0 0 1 0-2h16a1 1 0 0 1 0 2H4zM4 7a1 1 0 1 1 0-2h16a1 1 0 0 1 0 2H4z" id="menu-right_a" /></defs><use fill="currentColor" fill-rule="nonzero" xlink:href="#menu-right_a" /></symbol><symbol viewBox="0 0 24 24" id="more-horizontal"><defs><path d="M2 4a2 2 0 1 1 0-4 2 2 0 0 1 0 4zm8 0a2 2 0 1 1 0-4 2 2 0 0 1 0 4zm8 0a2 2 0 1 1 0-4 2 2 0 0 1 0 4z" id="more-horizontal_a" /></defs><use fill="currentColor" xlink:href="#more-horizontal_a" transform="translate(2 10)" fill-rule="evenodd" /></symbol><symbol viewBox="0 0 24 24" id="more-vertical"><defs><path d="M2 4a2 2 0 1 1 0-4 2 2 0 0 1 0 4zm0 8a2 2 0 1 1 0-4 2 2 0 0 1 0 4zm0 8a2 2 0 1 1 0-4 2 2 0 0 1 0 4z" id="more-vertical_a" /></defs><use fill="currentColor" xlink:href="#more-vertical_a" transform="translate(10 2)" fill-rule="evenodd" /></symbol><symbol viewBox="0 0 24 24" id="open"><path d="M17 13a1 1 0 0 1 2 0v6a3 3 0 0 1-3 3H5a3 3 0 0 1-3-3V8a3 3 0 0 1 3-3h6a1 1 0 0 1 0 2H5a1 1 0 0 0-1 1v11a1 1 0 0 0 1 1h11a1 1 0 0 0 1-1v-6zm1.586-9H15a1 1 0 0 1 0-2h6a1 1 0 0 1 1 1v6a1 1 0 0 1-2 0V5.414l-9.293 9.293a1 1 0 1 1-1.414-1.414L18.586 4z" fill="currentColor" fill-rule="nonzero" /></symbol><symbol viewBox="0 0 24 24" id="search"><defs><path d="M16.463 15.05l4.244 4.243a1 1 0 0 1-1.414 1.414l-4.244-4.244a7.5 7.5 0 1 1 1.414-1.414zM10.5 16a5.5 5.5 0 1 0 0-11 5.5 5.5 0 0 0 0 11z" id="search_a" /></defs><use fill="currentColor" fill-rule="nonzero" xlink:href="#search_a" /></symbol><symbol viewBox="0 0 24 24" id="social-apple"><defs><path d="M18.71 18.5c-.83 1.24-1.71 2.45-3.05 2.47-1.34.03-1.77-.79-3.29-.79-1.53 0-2 .77-3.27.82-1.31.05-2.3-1.32-3.14-2.53C4.25 16 2.94 11.45 4.7 8.39c.87-1.52 2.43-2.48 4.12-2.51 1.28-.02 2.5.87 3.29.87.78 0 2.26-1.07 3.81-.91.65.03 2.47.26 3.64 1.98-.09.06-2.17 1.28-2.15 3.81.03 3.02 2.65 4.03 2.68 4.04-.03.07-.42 1.44-1.38 2.83zM13 2.5c.73-.83 1.94-1.46 2.94-1.5.13 1.17-.34 2.35-1.04 3.19-.69.85-1.83 1.51-2.95 1.42-.15-1.15.41-2.35 1.05-3.11z" id="social-apple_a" /></defs><use fill="currentColor" fill-rule="nonzero" xlink:href="#social-apple_a" /></symbol><symbol viewBox="0 0 24 24" id="social-facebook"><defs><path d="M13.25 8.875v-2.5c0-.69.56-1.25 1.25-1.25h1.25V2h-2.5A3.75 3.75 0 0 0 9.5 5.75v3.125H7V12h2.5v10h3.75V12h2.5L17 8.875h-3.75z" id="social-facebook_a" /></defs><use fill="currentColor" fill-rule="nonzero" xlink:href="#social-facebook_a" /></symbol><symbol viewBox="0 0 24 24" id="social-googleplay"><defs><path d="M3 20.5v-17c0-.59.34-1.11.84-1.35L13.69 12l-9.85 9.85c-.5-.25-.84-.76-.84-1.35zm13.81-5.38L6.05 21.34l8.49-8.49 2.27 2.27zm3.35-4.31c.34.27.59.69.59 1.19s-.22.9-.57 1.18l-2.29 1.32-2.5-2.5 2.5-2.5 2.27 1.31zM6.05 2.66l10.76 6.22-2.27 2.27-8.49-8.49z" id="social-googleplay_a" /></defs><use fill="currentColor" fill-rule="nonzero" xlink:href="#social-googleplay_a" /></symbol><symbol viewBox="0 0 24 24" id="social-twitter"><defs><path d="M21.5 5.924a8.549 8.549 0 0 1-2.363.647 4.077 4.077 0 0 0 1.804-2.266 8.194 8.194 0 0 1-2.6.993 4.099 4.099 0 0 0-7.092 2.804c0 .324.027.637.095.934-3.409-.166-6.425-1.8-8.451-4.288A4.128 4.128 0 0 0 2.33 6.82c0 1.42.732 2.679 1.821 3.407A4.05 4.05 0 0 1 2.3 9.722v.046a4.119 4.119 0 0 0 3.285 4.028 4.092 4.092 0 0 1-1.075.135c-.263 0-.527-.015-.776-.07.531 1.624 2.038 2.818 3.831 2.857a8.239 8.239 0 0 1-5.084 1.748 7.68 7.68 0 0 1-.981-.056 11.543 11.543 0 0 0 6.29 1.84c7.545 0 11.67-6.25 11.67-11.668 0-.18-.006-.356-.015-.53A8.18 8.18 0 0 0 21.5 5.925z" id="social-twitter_a" /></defs><use fill="currentColor" fill-rule="nonzero" xlink:href="#social-twitter_a" /></symbol><symbol viewBox="0 0 24 24" id="social-youtube"><defs><path d="M21.15 6.325c-.542-.965-1.131-1.143-2.33-1.21C17.622 5.034 14.611 5 12.002 5c-2.613 0-5.626.034-6.822.114-1.196.069-1.786.245-2.334 1.211C2.288 7.289 2 8.949 2 11.871v.01c0 2.91.288 4.583.846 5.537.548.965 1.136 1.14 2.333 1.22 1.197.07 4.21.112 6.823.112 2.61 0 5.62-.041 6.82-.11 1.198-.081 1.787-.256 2.33-1.221.563-.954.848-2.627.848-5.537v-.006-.003c0-2.924-.285-4.584-.85-5.548zm-11.65 9.3v-7.5l6.25 3.75-6.25 3.75z" id="social-youtube_a" /></defs><use fill="currentColor" fill-rule="nonzero" xlink:href="#social-youtube_a" /></symbol><symbol viewBox="0 0 24 24" id="star"><defs><path d="M14.414 13l4.293 4.293a1 1 0 0 1-1.414 1.414L13 14.414v6.071a1 1 0 0 1-2 0v-6.07l-4.293 4.292a1 1 0 1 1-1.414-1.414L9.586 13H3.515a1 1 0 0 1 0-2h6.07L5.294 6.707a1 1 0 0 1 1.414-1.414L11 9.586V3.515a1 1 0 0 1 2 0v6.07l4.293-4.292a1 1 0 0 1 1.414 1.414L14.414 11h6.071a1 1 0 0 1 0 2h-6.07z" id="star_a" /></defs><use fill="currentColor" fill-rule="nonzero" xlink:href="#star_a" /></symbol><symbol viewBox="0 0 24 24" id="thumbs-down"><defs><path d="M9 16H4.351a3 3 0 0 1-3-3.452l1.38-8.998A2.997 2.997 0 0 1 5.72 1H17a1 1 0 0 1 1 1v11a1 1 0 0 1-.086.406l-4 9A1 1 0 0 1 13 23a4 4 0 0 1-4-4v-3zm7-13H5.709a1 1 0 0 0-1 .852l-1.38 8.998A1 1 0 0 0 4.34 14H10a1 1 0 0 1 1 1v4a2 2 0 0 0 1.392 1.906L16 12.788V3zm2 9h1.688A1.31 1.31 0 0 0 21 10.923V4.077A1.315 1.315 0 0 0 19.67 3H18v9zM17 1h2.652a3.31 3.31 0 0 1 3.339 2.866L23 4v7l-.009.134A3.305 3.305 0 0 1 19.67 14H17a1 1 0 0 1-1-1V2a1 1 0 0 1 1-1z" id="thumbs-down_a" /></defs><use fill="currentColor" fill-rule="nonzero" xlink:href="#thumbs-down_a" /></symbol><symbol viewBox="0 0 24 24" id="thumbs-up"><defs><path d="M15.193 8h4.74a3.047 3.047 0 0 1 2.318 1.025c.587.665.85 1.553.714 2.429l-1.402 8.998A3.02 3.02 0 0 1 18.543 23H7.08a1 1 0 0 1-1-1V11a1 1 0 0 1 .088-.412l4.065-9A1 1 0 0 1 11.145 1c2.232 0 4.048 1.787 4.048 4v3zm3.36 13c.52.006.958-.361 1.034-.854l1.402-8.998a.978.978 0 0 0-.237-.798 1.053 1.053 0 0 0-.807-.35h-5.752a1 1 0 0 1-1-1V5c0-.896-.605-1.659-1.442-1.911l-3.67 8.126V21h10.473zM6.082 12H4.032C3.46 12 3 12.45 3 13v7c0 .549.459 1 1.032 1h2.049v-9zm1 11H4.032C2.362 23 1 21.66 1 20v-7c0-1.66 1.361-3 3.032-3h3.049a1 1 0 0 1 1 1v11a1 1 0 0 1-1 1z" id="thumbs-up_a" /></defs><use fill="currentColor" fill-rule="nonzero" xlink:href="#thumbs-up_a" /></symbol></defs></svg>