<svg xmlns="http://www.w3.org/2000/svg" xmlns:xlink="http://www.w3.org/1999/xlink"><defs><symbol viewBox="0 0 16 16" id="code"><path d="M9.554 3.259a1 1 0 0 1 .707 1.225l-2.07 7.727a1 1 0 1 1-1.932-.518l2.07-7.727a1 1 0 0 1 1.225-.707zM4.537 5.707L2.414 7.83l2.123 2.122a1 1 0 1 1-1.415 1.414l-2.83-2.83a1 1 0 0 1 0-1.414l2.83-2.83a1 1 0 0 1 1.415 1.415zm6.756 4.245l2.122-2.122-2.122-2.123a1 1 0 1 1 1.414-1.414l2.83 2.83a1 1 0 0 1 0 1.414l-2.83 2.83a1 1 0 0 1-1.414-1.415z" fill-rule="evenodd" /></symbol><symbol viewBox="0 0 16 16" id="minus"><rect width="2" height="12" x="7" y="2" fill="#999" fill-rule="evenodd" rx="1" transform="rotate(90 8 8)" /></symbol><symbol viewBox="0 0 16 16" id="plus"><path fill="#999" fill-rule="evenodd" d="M9 7V3a1 1 0 1 0-2 0v4H3a1 1 0 1 0 0 2h4v4a1 1 0 0 0 2 0V9h4a1 1 0 0 0 0-2H9z" /></symbol></defs></svg>